OFF
13 22 0
0 0.8506508 0.4205849 
0 0.8506507 -0.4205849 
0 -0.8506506 0.4205849 
0 -0.8506505 -0.4205849 
1.098039 0.7340743 0 
1.09804 -0.7340743 0 
-0.9757887 0.4043946 0 
-0.9757895 -0.4043946 0 
0.5536193 0 0.9502059 
-0.6758717 0 0.5234594 
0.5536195 0 -0.9502059 
-0.6758719 0 -0.5234594 
-0.3075028 -0.5757815 0.07868684 
3 1 0 4 
3 0 1 6 
3 2 3 5 
3 4 5 10 
3 5 4 8 
3 6 7 9 
3 7 6 11 
3 8 9 2 
3 9 8 0 
3 10 11 1 
3 11 10 3 
3 0 8 4 
3 0 6 9 
3 1 4 10 
3 1 11 6 
3 2 5 8 
3 2 9 7 
3 3 10 5 
3 3 7 11 
3 3 2 12 
3 2 7 12 
3 7 3 12 
