OFF
68 132 0
-1.173466e-07 0.7374441 0.3680926 
-1.108274e-07 0.7374441 -0.3680926 
-0.01067724 -0.7624908 0.3722605 
-0.01067724 -0.7624907 -0.3667961 
0.9337931 0.5989171 0 
0.9337941 -0.5989171 9.313226e-10 
-0.8482181 0.3681413 9.313226e-10 
-0.8639945 -0.3851696 0.002732182 
0.4912248 7.450581e-09 0.7808859 
-0.5768017 1.024455e-08 0.4821633 
0.4912249 1.583248e-08 -0.7808859 
-0.5768019 1.117587e-08 -0.4821633 
-0.314903 -0.6283303 0.04590065 
0.366013 0.811792 0 
-0.3252629 0.7018988 0 
0.3660134 -0.8117918 0 
0.9165662 0 -0.3167353 
0.9165662 0 0.3167353 
-0.8758166 0 0.1744865 
-0.8758168 0 -0.1744865 
-0.04075082 -0.2835502 0.6314167 
-0.04075082 0.2835503 0.6314167 
-0.0407508 0.2835502 -0.6314167 
-0.0407508 -0.2835502 -0.6314167 
0.5505527 0.5282417 0.4569302 
-0.5505535 0.4183485 0.3146814 
0.5505528 0.5282417 -0.4569302 
-0.5505536 0.4183484 -0.3146814 
0.5505531 -0.5282416 0.4569302 
-0.5505537 -0.4183484 0.3146814 
0.5505533 -0.5282416 -0.4569302 
-0.5505538 -0.4183483 -0.3146814 
-0.1025009 -0.7590275 0.02622895 
-0.4277641 -0.6102756 0.1664239 
-0.4277641 -0.6102755 -0.113966 
0.01018751 0.8037481 0 
0.5036511 0.7311897 0.2193788 
0.5036511 0.7311897 -0.2193788 
-0.4629013 0.5938231 -0.1838166 
-0.4629013 0.5938231 0.1838166 
0.06587812 -0.8180301 0.006557237 
0.5036517 -0.7311895 -0.2193788 
0.5036517 -0.7311895 0.2193788 
1.007303 0 0 
0.7796948 -0.315579 -0.4309678 
0.7796943 0.315579 -0.4309678 
0.7796943 0.315579 0.4309678 
0.7796947 -0.315579 0.4309678 
-0.9258029 0 0 
-0.7695079 -0.2056857 0.2531568 
-0.7695076 0.2056858 0.2531568 
-0.7695077 0.2056858 -0.2531568 
-0.769508 -0.2056857 -0.2531568 
-0.05093852 1.490116e-08 0.6841247 
-0.3167941 -0.3881373 0.4725356 
0.2658554 -0.4156106 0.6147844 
0.2658553 0.4156107 0.6147845 
-0.316794 0.3881374 0.4725356 
-0.0509385 1.490116e-08 -0.6841247 
-0.3167941 0.3881373 -0.4725356 
0.2658554 0.4156107 -0.6147844 
0.2658555 -0.4156106 -0.6147845 
-0.3167941 -0.3881373 -0.4725356 
-0.4885269 -0.5709173 0.2254226 
-0.4885269 -0.5709172 -0.2123081 
-0.209442 -0.6989338 0.1729811 
-0.209442 -0.6989337 -0.1074088 
-0.5347051 -0.5501818 0.03278618 
3 1 35 13 
3 1 13 37 
3 0 36 13 
3 0 13 35 
3 4 37 36 
3 37 13 36 
3 0 35 14 
3 0 14 39 
3 1 38 14 
3 1 14 35 
3 6 39 38 
3 39 14 38 
3 2 40 42 
3 40 15 42 
3 3 41 40 
3 41 15 40 
3 5 42 41 
3 42 15 41 
3 4 43 45 
3 43 16 45 
3 5 44 43 
3 44 16 43 
3 10 45 16 
3 10 16 44 
3 5 43 47 
3 43 17 47 
3 4 46 43 
3 46 17 43 
3 8 47 17 
3 8 17 46 
3 6 48 50 
3 48 18 50 
3 7 49 48 
3 49 18 48 
3 9 50 49 
3 50 18 49 
3 7 48 52 
3 48 19 52 
3 6 51 48 
3 51 19 48 
3 11 52 51 
3 52 19 51 
3 8 53 55 
3 53 20 55 
3 9 54 53 
3 54 20 53 
3 2 55 20 
3 2 20 54 
3 9 53 57 
3 53 21 57 
3 8 56 53 
3 56 21 53 
3 0 57 21 
3 0 21 56 
3 10 58 60 
3 58 22 60 
3 11 59 58 
3 59 22 58 
3 1 60 22 
3 1 22 59 
3 11 58 62 
3 58 23 62 
3 10 61 58 
3 61 23 58 
3 3 62 23 
3 3 23 61 
3 0 56 36 
3 56 24 36 
3 8 46 56 
3 46 24 56 
3 4 36 46 
3 36 24 46 
3 0 39 57 
3 39 25 57 
3 6 50 25 
3 6 25 39 
3 9 57 25 
3 9 25 50 
3 1 37 60 
3 37 26 60 
3 4 45 37 
3 45 26 37 
3 10 60 45 
3 60 26 45 
3 1 59 38 
3 59 27 38 
3 11 51 27 
3 11 27 59 
3 6 38 27 
3 6 27 51 
3 2 42 55 
3 42 28 55 
3 5 47 42 
3 47 28 42 
3 8 55 47 
3 55 28 47 
3 2 54 63 
3 54 29 63 
3 9 49 29 
3 9 29 54 
3 7 63 29 
3 7 29 49 
3 3 61 41 
3 61 30 41 
3 10 44 61 
3 44 30 61 
3 5 41 44 
3 41 30 44 
3 3 64 62 
3 64 31 62 
3 7 52 31 
3 7 31 64 
3 11 62 31 
3 11 31 52 
3 3 40 66 
3 40 32 66 
3 2 65 40 
3 65 32 40 
3 12 66 32 
3 12 32 65 
3 2 63 65 
3 63 33 65 
3 7 67 63 
3 67 33 63 
3 12 65 33 
3 12 33 67 
3 7 64 67 
3 64 34 67 
3 3 66 64 
3 66 34 64 
3 12 67 34 
3 12 34 66 
