OFF
1323 2642 0
1.672485 0.0005626678 -0.876332 
-0.613193 0.0005626678 -0.876332 
1.650288 0.1462805 -0.876332 
-1.419533 -0.2908731 -0.876332 
-1.381355 -0.3337839 -0.876332 
0.9501312 -0.3746039 -0.876332 
1.5712 0.2919984 -0.876332 
-0.6498878 0.1462805 -0.876332 
-1.089919 -0.4636753 -0.876332 
-1.496765 -0.1451552 -0.876332 
0.8537383 -0.2908731 -0.876332 
-1.518774 0.0005626678 -0.876332 
0.750145 0.0005626678 -0.876332 
1.387285 0.4292803 -0.876332 
-1.498859 0.1462805 -0.876332 
-1.218538 -0.4365909 -0.876332 
0.7719429 0.1462805 -0.876332 
1.359996 -0.4365909 -0.876332 
-0.7265036 0.2919984 -0.876332 
-0.944201 -0.4502099 -0.876332 
-1.418567 0.2919984 -0.876332 
-0.7984831 0.3774993 -0.876332 
0.8044133 0.2209427 -0.876332 
1.095849 -0.4516397 -0.876332 
1.241567 -0.4649836 -0.876332 
1.533003 0.3333037 -0.876332 
-0.9133412 0.4377162 -0.876332 
1.241567 0.4645901 -0.876332 
0.8446639 0.2919984 -0.876332 
0.8044133 -0.2304215 -0.876332 
1.533003 -0.3346344 -0.876332 
0.9501312 0.39379 -0.876332 
0.7714438 -0.1451552 -0.876332 
-0.7984831 -0.3805161 -0.876332 
1.573109 -0.2908731 -0.876332 
-1.089919 0.4623427 -0.876332 
1.035068 0.4377162 -0.876332 
-1.381355 0.3323679 -0.876332 
-0.7104524 -0.2908731 -0.876332 
1.650352 -0.1451552 -0.876332 
1.095849 0.4549203 -0.876332 
-0.6527653 -0.1895702 -0.876332 
-1.235637 0.4291277 -0.876332 
1.387285 0.1462805 -0.9672829 
0.8044133 0.0005626678 -0.9032923 
1.095849 -0.2908731 -0.9428843 
-1.381355 -0.1451552 -0.9253937 
-1.089919 0.0005626678 -0.993006 
-1.381355 0.0005626678 -0.9376357 
1.095849 -0.1451552 -0.9760559 
0.9501312 -0.2908731 -0.9086666 
-1.089919 0.1462805 -0.9816968 
1.241567 -0.2908731 -0.9485581 
-1.381355 0.1462805 -0.9265001 
1.241567 -0.1451552 -0.9820585 
-1.235637 -0.2908731 -0.9331515 
1.387285 0.2919984 -0.9324152 
0.9501312 0.0005626678 -0.9615197 
-1.089919 -0.2908731 -0.9482908 
0.9501312 -0.1451552 -0.9485946 
-1.235637 -0.1451552 -0.9666871 
1.095849 0.0005626678 -0.9871535 
-0.944201 0.0005626678 -0.9874578 
1.533003 0.1462805 -0.9263798 
1.241567 0.0005626678 -0.992906 
-1.235637 0.0005626678 -0.9768617 
0.9501312 0.1462805 -0.9500854 
1.387285 -0.2908731 -0.9305028 
-0.944201 0.1462805 -0.9765002 
0.9501312 0.2919984 -0.9140371 
-1.235637 0.1462805 -0.9661694 
-0.7984831 0.0005626678 -0.9580196 
1.533003 0.0005626678 -0.9371766 
-1.089919 -0.1451552 -0.9825084 
-0.7984831 0.1462805 -0.9459999 
1.095849 0.1462805 -0.9776458 
-1.235637 0.2919984 -0.9315592 
1.241567 0.2919984 -0.9501711 
-1.089919 0.2919984 -0.948042 
1.387285 -0.1451552 -0.9671696 
-0.944201 0.2919984 -0.942775 
1.533003 -0.1451552 -0.9254773 
1.241567 0.1462805 -0.9830359 
-0.944201 -0.2908731 -0.9415638 
-0.7984831 0.2919984 -0.906885 
1.387285 0.0005626678 -0.9773657 
1.095849 0.2919984 -0.9439591 
-0.7984831 -0.2908731 -0.9082977 
-0.944201 -0.1451552 -0.9770658 
-0.7984831 -0.1451552 -0.9451432 
1.824438 0.2596767 -0.7306142 
0.1901453 0.0005626678 -0.7306142 
-0.4641516 -0.1451552 -0.7306142 
-1.722446 0.0005626678 -0.7306142 
1.387285 -0.6484109 -0.7306142 
-1.381355 -0.5881292 -0.7306142 
1.241567 -0.6726266 -0.7306142 
-1.706177 0.1462805 -0.7306142 
0.1391637 0.1462805 -0.7306142 
-1.67279 0.2587554 -0.7306142 
-0.5070474 0.3069379 -0.7306142 
0.9501312 -0.6204987 -0.7306142 
1.533003 -0.586809 -0.7306142 
1.715594 0.4377162 -0.7306142 
0.07582402 0.1965921 -0.7306142 
-0.4733436 0.0005626678 -0.7306142 
1.67872 0.4773808 -0.7306142 
0.8819485 -0.5823088 -0.7306142 
-1.560972 0.4377162 -0.7306142 
0.07582402 -0.2035804 -0.7306142 
1.536567 0.5834341 -0.7306142 
1.67872 -0.4759598 -0.7306142 
-1.235637 -0.6481879 -0.7306142 
-0.944201 -0.6630006 -0.7306142 
-1.089919 -0.6730671 -0.7306142 
1.877379 0.0005626678 -0.7306142 
-1.386781 0.5834341 -0.7306142 
-0.5755913 0.4377162 -0.7306142 
1.095849 -0.6660122 -0.7306142 
1.714373 -0.4365909 -0.7306142 
-1.67279 -0.2557969 -0.7306142 
1.860372 0.1462805 -0.7306142 
0.5530398 0.0005626678 -0.7306142 
-1.706714 -0.1451552 -0.7306142 
1.811146 -0.2908731 -0.7306142 
0.5657012 0.1462805 -0.7306142 
-0.7984831 -0.6176045 -0.7306142 
-1.235637 0.6500008 -0.7306142 
-0.6527653 0.5213919 -0.7306142 
1.387285 0.6473892 -0.7306142 
0.6586955 -0.3657763 -0.7306142 
-0.734514 -0.5823088 -0.7306142 
-1.089919 0.6744821 -0.7306142 
1.860157 -0.1451552 -0.7306142 
0.6154699 -0.2908731 -0.7306142 
-0.74532 0.5834341 -0.7306142 
1.241567 0.6752496 -0.7306142 
-0.6527653 -0.5184985 -0.7306142 
-1.527072 -0.4785814 -0.7306142 
0.1553357 -0.1451552 -0.7306142 
-0.05923557 -0.1451552 -0.7306142 
-1.563829 -0.4365909 -0.7306142 
0.6185577 0.2919984 -0.7306142 
0.565711 -0.1451552 -0.7306142 
-0.4748168 0.1462805 -0.7306142 
-0.5770621 -0.4365909 -0.7306142 
0.8044133 -0.5256561 -0.7306142 
-0.1666391 0.0005626678 -0.7306142 
-0.5070474 -0.3336724 -0.7306142 
0.714957 -0.4365909 -0.7306142 
0.6586955 0.3685083 -0.7306142 
-0.1374631 0.1462805 -0.7306142 
0.7053423 0.4377162 -0.7306142 
-0.06989384 0.1993153 -0.7306142 
0.8044133 0.532454 -0.7306142 
0.8795609 0.5834341 -0.7306142 
-0.944201 0.6622603 -0.7306142 
-0.7984831 0.6106296 -0.7306142 
0.9501312 0.6216211 -0.7306142 
1.095849 0.6679986 -0.7306142 
-0.5070474 0.0005626678 -0.7940916 
1.241567 -0.5823088 -0.8027333 
-1.67279 0.0005626678 -0.7717997 
-0.5070474 0.1462805 -0.7822586 
0.07582402 0.0005626678 -0.7633743 
-0.5070474 -0.1451552 -0.7949579 
0.07582402 0.1462805 -0.7441163 
1.387285 -0.5823088 -0.7816957 
0.07582402 -0.1451552 -0.7467911 
-0.6527653 0.2919984 -0.8440735 
0.6586955 0.0005626678 -0.8222077 
-1.527072 -0.2908731 -0.8227431 
1.095849 -0.5823088 -0.7965853 
0.6586955 0.1462805 -0.8066241 
0.6586955 0.2919984 -0.7625209 
1.824438 0.0005626678 -0.7752702 
-0.06989384 0.0005626678 -0.7568467 
1.533003 -0.4365909 -0.831039 
1.67872 0.2919984 -0.8235735 
0.6586955 -0.2908731 -0.7643369 
-1.527072 0.2919984 -0.8235724 
-1.235637 -0.5823088 -0.7825286 
-0.7984831 0.4377162 -0.8512301 
0.6586955 -0.1451552 -0.8098075 
-1.089919 0.5834341 -0.8034813 
0.8044133 0.4377162 -0.7935377 
-1.089919 -0.5823088 -0.8034762 
1.533003 0.4377162 -0.8292512 
0.8044133 -0.4365909 -0.7853961 
1.67872 -0.2908731 -0.8242919 
-1.381355 0.4377162 -0.8296949 
0.9501312 -0.4365909 -0.8508852 
1.241567 0.5834341 -0.8029902 
0.8044133 -0.2908731 -0.8588682 
-0.944201 0.5834341 -0.792887 
1.387285 0.5834341 -0.779134 
-1.381355 -0.4365909 -0.8314259 
-0.944201 -0.5823088 -0.7960699 
1.095849 0.5834341 -0.7983297 
-1.235637 0.5834341 -0.7831132 
-0.7984831 -0.4365909 -0.8522384 
-0.6527653 0.4377162 -0.7851464 
-0.6527653 -0.4365909 -0.7842375 
-0.6527653 -0.2908731 -0.8529264 
-0.06989384 0.1462805 -0.7453498 
1.824438 0.5087409 -0.5848963 
-0.5070474 0.5108833 -0.5848963 
1.754575 0.5834341 -0.5848963 
0.3672597 0.265445 -0.5848963 
-1.8535 0.0005626678 -0.5848963 
-0.944201 -0.791647 -0.5848963 
0.9501312 -0.7600865 -0.5848963 
-1.089919 -0.7992038 -0.5848963 
-1.381355 -0.7316381 -0.5848963 
-0.5554581 0.5834341 -0.5848963 
0.8719893 -0.7280266 -0.5848963 
2.004067 0.0005626678 -0.5848963 
0.8044133 -0.6908352 -0.5848963 
1.990962 0.1462805 -0.5848963 
-0.7984831 -0.7534027 -0.5848963 
-1.527072 -0.6474593 -0.5848963 
-0.3613296 0.4170051 -0.5848963 
0.6778727 -0.5823088 -0.5848963 
1.970156 0.236392 -0.5848963 
-0.7380296 -0.7280266 -0.5848963 
-1.60405 -0.5823088 -0.5848963 
1.387285 -0.7816933 -0.5848963 
-0.4108706 0.4377162 -0.5848963 
1.951659 0.2919984 -0.5848963 
1.095849 -0.7969667 -0.5848963 
0.4497497 0.2919984 -0.5848963 
-1.235637 -0.7790616 -0.5848963 
-0.6527653 -0.6812716 -0.5848963 
1.241567 -0.8037573 -0.5848963 
-0.2156117 0.4009314 -0.5848963 
-1.840095 0.1462805 -0.5848963 
-0.543756 -0.5823088 -0.5848963 
0.2215419 0.4202793 -0.5848963 
1.533003 -0.7329355 -0.5848963 
-1.67279 -0.5081824 -0.5848963 
-0.1573207 0.4377162 -0.5848963 
1.875284 0.4377162 -0.5848963 
-0.5070474 -0.5290463 -0.5848963 
-1.724527 -0.4365909 -0.5848963 
-1.818508 0.2432246 -0.5848963 
-0.06989384 0.4840987 -0.5848963 
-0.4139619 -0.4365909 -0.5848963 
0.07582402 0.4933705 -0.5848963 
0.1848409 -0.4365909 -0.5848963 
-0.3613296 -0.4166011 -0.5848963 
-1.801679 -0.2908731 -0.5848963 
1.387285 0.7806692 -0.5848963 
-0.944201 0.7926607 -0.5848963 
0.07582402 -0.4845687 -0.5848963 
-0.2156117 -0.4067078 -0.5848963 
-1.818508 -0.2389808 -0.5848963 
-1.089919 0.7998252 -0.5848963 
1.241567 0.8032591 -0.5848963 
0.5129776 0.4040015 -0.5848963 
-1.802472 0.2919984 -0.5848963 
-1.840957 -0.1451552 -0.5848963 
1.67872 -0.6470916 -0.5848963 
-0.06989384 -0.4827752 -0.5848963 
1.533003 0.7314913 -0.5848963 
-0.7984831 0.753967 -0.5848963 
0.3672597 -0.3231804 -0.5848963 
-0.158464 -0.4365909 -0.5848963 
-1.725007 0.4377162 -0.5848963 
1.67872 0.6461275 -0.5848963 
-0.6527653 0.6757395 -0.5848963 
1.756655 -0.5823088 -0.5848963 
-0.7400608 0.729152 -0.5848963 
0.556529 -0.4365909 -0.5848963 
0.6586955 0.5704985 -0.5848963 
-1.67279 0.5083082 -0.5848963 
0.5129776 -0.3761194 -0.5848963 
1.824438 -0.5083512 -0.5848963 
-1.603187 0.5834341 -0.5848963 
1.875906 -0.4365909 -0.5848963 
-1.527072 0.6476347 -0.5848963 
0.8044133 0.6906581 -0.5848963 
1.953144 -0.2908731 -0.5848963 
0.8778663 0.729152 -0.5848963 
-1.385497 0.729152 -0.5848963 
0.9501312 0.7584145 -0.5848963 
1.970156 -0.2392044 -0.5848963 
1.095849 0.795069 -0.5848963 
-1.235637 0.7784686 -0.5848963 
1.991457 -0.1451552 -0.5848963 
0.9501312 -0.7280266 -0.6259917 
-0.3613296 -0.1451552 -0.696196 
-1.089919 -0.7280266 -0.6741118 
-0.3613296 0.0005626678 -0.6966294 
1.241567 -0.7280266 -0.6756798 
-1.818508 0.0005626678 -0.6314665 
-0.2156117 -0.1451552 -0.6924689 
1.387285 -0.7280266 -0.6517663 
1.824438 0.4377162 -0.6396306 
-0.944201 -0.7280266 -0.6648318 
0.2215419 0.1462805 -0.7058806 
1.67872 0.5834341 -0.6481113 
-0.5070474 0.4377162 -0.6659718 
0.3672597 0.0005626678 -0.6493334 
0.8044133 -0.5823088 -0.6899889 
1.970156 0.0005626678 -0.6312476 
0.3672597 0.1462805 -0.643674 
-0.2156117 0.0005626678 -0.7152691 
0.07582402 0.2919984 -0.7002351 
-0.2156117 -0.2908731 -0.6447669 
1.095849 -0.7280266 -0.6694407 
-1.527072 -0.5823088 -0.6501544 
-0.06989384 -0.2908731 -0.6909115 
1.67872 -0.5823088 -0.6496197 
0.2215419 0.2919984 -0.6684456 
-1.67279 0.4377162 -0.6398052 
1.241567 0.729152 -0.6766461 
0.07582402 -0.2908731 -0.7027307 
-0.6527653 -0.5823088 -0.6851592 
0.07582402 -0.4365909 -0.6204528 
1.387285 0.729152 -0.6505387 
-1.235637 -0.7280266 -0.6497242 
-0.6527653 0.5834341 -0.673188 
1.824438 -0.4365909 -0.6399667 
0.2215419 -0.2908731 -0.6616817 
-1.527072 0.5834341 -0.6477013 
-0.5070474 -0.4365909 -0.6713325 
-0.3613296 0.1462805 -0.6812316 
-1.67279 -0.4365909 -0.6393229 
0.5129776 0.0005626678 -0.6887114 
0.6586955 -0.4365909 -0.6927762 
-0.3613296 -0.2908731 -0.6649497 
0.5129776 -0.2908731 -0.6492696 
-0.2156117 0.1462805 -0.7012875 
-1.235637 0.729152 -0.6484276 
-0.06989384 -0.4365909 -0.6193138 
0.2215419 -0.1451552 -0.7039446 
-0.3613296 0.2919984 -0.6653769 
0.5129776 0.1462805 -0.6783152 
-1.089919 0.729152 -0.6742989 
0.3672597 -0.1451552 -0.6427753 
-0.2156117 0.2919984 -0.6675342 
0.5129776 0.2919984 -0.6390988 
0.5129776 -0.1451552 -0.6808823 
-0.06989384 0.2919984 -0.6927909 
0.07582402 0.4377162 -0.6264693 
-0.06989384 0.4377162 -0.6126339 
-0.944201 0.729152 -0.6627085 
0.6586955 0.4377162 -0.6945866 
0.8044133 0.5834341 -0.6931193 
1.095849 0.729152 -0.6678041 
-1.944335 0.0005626678 -0.4391785 
0.2074127 -0.5823088 -0.4391785 
-1.67279 -0.6375575 -0.4391785 
1.383178 -0.8737445 -0.4391785 
0.07582402 -0.6245991 -0.4391785 
-1.932485 0.1462805 -0.4391785 
1.241567 -0.8900056 -0.4391785 
-1.725104 -0.5823088 -0.4391785 
-1.89451 0.2919984 -0.4391785 
0.6586955 -0.688857 -0.4391785 
-0.944201 -0.8791794 -0.4391785 
-1.089919 -0.8858944 -0.4391785 
1.533003 -0.8298999 -0.4391785 
-1.827456 0.4377162 -0.4391785 
1.67872 -0.7516721 -0.4391785 
0.5693667 -0.5823088 -0.4391785 
2.094501 0.0005626678 -0.4391785 
1.095849 -0.8846519 -0.4391785 
1.824438 -0.6380057 -0.4391785 
-1.217877 -0.8737445 -0.4391785 
-1.724789 0.5834341 -0.4391785 
-0.7984831 -0.8518319 -0.4391785 
1.876824 -0.5823088 -0.4391785 
0.2215419 0.5581398 -0.4391785 
2.082937 0.1462805 -0.4391785 
-0.3613296 0.5722489 -0.4391785 
-0.6527653 -0.786672 -0.4391785 
-0.4478703 0.5834341 -0.4391785 
2.042782 0.2919984 -0.4391785 
-1.67279 0.6393483 -0.4391785 
-0.5721619 -0.7280266 -0.4391785 
-0.2642324 0.5834341 -0.4391785 
1.97604 0.4377162 -0.4391785 
0.3672597 0.5030975 -0.4391785 
-1.563649 0.729152 -0.4391785 
-0.7984831 0.8511734 -0.4391785 
-0.5070474 -0.6716232 -0.4391785 
1.875802 0.5834341 -0.4391785 
-0.9097884 0.8748698 -0.4391785 
0.5129776 0.5404932 -0.4391785 
1.970156 -0.4507556 -0.4391785 
-0.4113197 -0.5823088 -0.4391785 
1.387285 0.8725393 -0.4391785 
0.5619166 0.5834341 -0.4391785 
-1.381355 0.8300011 -0.4391785 
-0.5070474 0.6642473 -0.4391785 
-0.06989384 -0.6123344 -0.4391785 
2.04517 -0.2908731 -0.4391785 
-0.5697362 0.729152 -0.4391785 
-1.235637 0.8720169 -0.4391785 
0.07582402 0.6253181 -0.4391785 
1.533003 0.8286808 -0.4391785 
-0.6527653 0.7875075 -0.4391785 
2.08285 -0.1451552 -0.4391785 
-0.1733029 -0.5823088 -0.4391785 
1.022807 -0.8737445 -0.4391785 
1.824438 0.6374207 -0.4391785 
-1.527072 -0.7519516 -0.4391785 
1.713444 0.729152 -0.4391785 
-0.3613296 -0.5683211 -0.4391785 
-1.089919 0.8884773 -0.4391785 
0.6586955 0.6879303 -0.4391785 
0.8044133 -0.7930695 -0.4391785 
0.7128356 0.729152 -0.4391785 
1.241567 0.8912766 -0.4391785 
-1.381355 -0.8294915 -0.4391785 
0.8044133 0.7911885 -0.4391785 
0.7076695 -0.7280266 -0.4391785 
-0.06989384 0.6236711 -0.4391785 
0.9501312 0.8553054 -0.4391785 
0.9501312 -0.8557564 -0.4391785 
1.032389 0.8748698 -0.4391785 
-1.818508 -0.4542426 -0.4391785 
1.095849 0.8850312 -0.4391785 
0.3672597 -0.5121423 -0.4391785 
-1.894507 -0.2908731 -0.4391785 
0.5129776 -0.5250043 -0.4391785 
-1.932332 -0.1451552 -0.4391785 
0.07582402 -0.5823088 -0.4911577 
-0.5070474 0.5834341 -0.527729 
1.824438 0.5834341 -0.509259 
-1.67279 -0.5823088 -0.5120984 
1.824438 -0.5823088 -0.5105742 
-0.6527653 -0.7280266 -0.5228418 
0.8044133 -0.7280266 -0.5389297 
-0.5070474 -0.5823088 -0.5436103 
-1.67279 0.5834341 -0.5108243 
1.67872 0.729152 -0.4763517 
-0.06989384 -0.5823088 -0.4811072 
-0.06989384 0.5834341 -0.4907155 
0.3672597 -0.4365909 -0.5173012 
0.07582402 0.5834341 -0.4940033 
-1.527072 0.729152 -0.4792662 
0.3672597 0.4377162 -0.496714 
0.5129776 -0.4365909 -0.5354838 
-0.6527653 0.729152 -0.5229748 
0.8044133 0.729152 -0.5338771 
2.141947 -0.1451552 -0.2934606 
1.387285 -0.9327754 -0.2934606 
-1.67279 -0.7174009 -0.2934606 
1.241567 -0.9500483 -0.2934606 
0.2215419 -0.6772561 -0.2934606 
2.115874 0.2612939 -0.2934606 
0.07582402 -0.7091039 -0.2934606 
1.533003 -0.8896716 -0.2934606 
-1.801886 -0.5823088 -0.2934606 
-0.944201 -0.9396342 -0.2934606 
2.15159 0.0005626678 -0.2934606 
0.3672597 -0.5975777 -0.2934606 
-1.381355 -0.8888389 -0.2934606 
0.6586955 -0.7636551 -0.2934606 
1.67872 -0.8223028 -0.2934606 
-1.089919 -0.9480252 -0.2934606 
0.6165066 -0.7280266 -0.2934606 
2.139943 0.1462805 -0.2934606 
-2.001111 0.0005626678 -0.2934606 
1.812643 -0.7280266 -0.2934606 
0.5129776 -0.6170402 -0.2934606 
-0.6527653 0.8512239 -0.2934606 
-1.235637 -0.9319441 -0.2934606 
-0.7984831 -0.9084395 -0.2934606 
2.043063 0.4377162 -0.2934606 
0.3672597 0.5754988 -0.2934606 
-1.527072 -0.8234285 -0.2934606 
1.970156 0.5584567 -0.2934606 
0.9501312 -0.9125084 -0.2934606 
1.953644 -0.5823088 -0.2934606 
0.4898233 0.5834341 -0.2934606 
-1.988816 0.1462805 -0.2934606 
0.8457613 -0.8737445 -0.2934606 
-0.7032965 -0.8737445 -0.2934606 
-0.7116123 0.8748698 -0.2934606 
0.2215419 0.6745088 -0.2934606 
-1.964226 0.262234 -0.2934606 
1.095849 -0.9436327 -0.2934606 
-1.894024 -0.4365909 -0.2934606 
0.07582402 0.7051528 -0.2934606 
-0.5070474 0.7331491 -0.2934606 
2.045416 -0.4365909 -0.2934606 
-0.6527653 -0.8523288 -0.2934606 
-1.955771 -0.2908731 -0.2934606 
-0.944201 0.941741 -0.2934606 
2.108927 -0.2908731 -0.2934606 
-0.5070474 -0.744797 -0.2934606 
1.824438 0.7187474 -0.2934606 
-1.089919 0.9507139 -0.2934606 
-1.894612 0.4377162 -0.2934606 
-1.988811 -0.1451552 -0.2934606 
-0.7984831 0.9058752 -0.2934606 
-1.818508 0.5607026 -0.2934606 
-0.3613296 -0.6487451 -0.2934606 
0.6157479 0.729152 -0.2934606 
0.6586955 0.7620633 -0.2934606 
-0.2156117 -0.6361111 -0.2934606 
1.67872 0.8231525 -0.2934606 
-0.3613296 0.6584582 -0.2934606 
-0.06989384 -0.688879 -0.2934606 
1.574717 0.8748698 -0.2934606 
-1.67279 0.7184031 -0.2934606 
0.8044133 0.8591287 -0.2934606 
1.387285 0.9323771 -0.2934606 
-0.2156117 0.6725817 -0.2934606 
1.241567 0.9515946 -0.2934606 
-0.06989384 0.704355 -0.2934606 
-1.527072 0.8234675 -0.2934606 
0.9501312 0.9141667 -0.2934606 
-1.421479 0.8748698 -0.2934606 
1.095849 0.9453773 -0.2934606 
-1.235637 0.9330158 -0.2934606 
2.115874 -0.1451552 -0.3654671 
2.115874 0.0005626678 -0.3911844 
-0.7984831 -0.8737445 -0.3892463 
2.115874 0.1462805 -0.3638506 
-1.964226 0.1462805 -0.3658533 
0.6586955 -0.7280266 -0.3672545 
1.533003 -0.8737445 -0.3409274 
0.5129776 0.5834341 -0.3477542 
-0.7984831 0.8748698 -0.3808365 
1.533003 0.8748698 -0.337492 
-1.964226 -0.1451552 -0.36576 
-1.381355 0.8748698 -0.3396432 
0.6586955 0.729152 -0.3672404 
2.17725 -0.1451552 -0.1477427 
1.387285 -0.96708 -0.1477427 
2.187265 0.0005626678 -0.1477427 
-0.944201 -0.9757059 -0.1477427 
-1.67279 -0.7584585 -0.1477427 
-1.089919 -0.9808517 -0.1477427 
1.241567 -0.9835927 -0.1477427 
2.174821 0.1462805 -0.1477427 
-2.035522 0.0005626678 -0.1477427 
2.140318 0.2919984 -0.1477427 
0.1899486 -0.7280266 -0.1477427 
2.115874 0.3629265 -0.1477427 
1.533003 -0.9257338 -0.1477427 
-2.024668 0.1462805 -0.1477427 
-1.818508 -0.6123244 -0.1477427 
2.083077 0.4377162 -0.1477427 
1.991435 0.5834341 -0.1477427 
-1.98922 0.2919984 -0.1477427 
-0.7984831 -0.9457387 -0.1477427 
1.654492 -0.8737445 -0.1477427 
0.07582402 -0.7521961 -0.1477427 
1.67872 0.8601501 -0.1477427 
0.2215419 0.7067535 -0.1477427 
-1.964226 0.3644896 -0.1477427 
-0.6527653 -0.8811343 -0.1477427 
0.1351719 0.729152 -0.1477427 
-1.381355 -0.9243799 -0.1477427 
1.824438 0.7578783 -0.1477427 
-1.933004 0.4377162 -0.1477427 
0.3672597 -0.6552509 -0.1477427 
1.824438 -0.7595823 -0.1477427 
-1.502163 -0.8737445 -0.1477427 
1.387285 0.9672945 -0.1477427 
-1.841256 0.5834341 -0.1477427 
0.3672597 0.6577499 -0.1477427 
0.6586955 -0.8132148 -0.1477427 
1.241567 0.9838285 -0.1477427 
-1.235637 -0.9639596 -0.1477427 
0.5737181 -0.7280266 -0.1477427 
1.533003 0.9259109 -0.1477427 
1.970156 -0.6126988 -0.1477427 
-0.5070474 -0.7766678 -0.1477427 
-1.708645 0.729152 -0.1477427 
2.084656 -0.4365909 -0.1477427 
-0.4760296 -0.7280266 -0.1477427 
0.07582402 0.7431536 -0.1477427 
2.115874 -0.3668739 -0.1477427 
-1.527072 0.8613446 -0.1477427 
0.5129776 0.6717734 -0.1477427 
0.5129776 -0.6641039 -0.1477427 
2.142047 -0.2908731 -0.1477427 
-0.3613296 -0.6912959 -0.1477427 
0.5805976 0.729152 -0.1477427 
0.8044133 -0.8908411 -0.1477427 
-0.2156117 -0.6962885 -0.1477427 
-1.964226 -0.3671787 -0.1477427 
0.6586955 0.8057652 -0.1477427 
-1.381355 0.9256201 -0.1477427 
-1.990315 -0.2908731 -0.1477427 
-0.06989384 -0.7345279 -0.1477427 
-0.5070474 0.7833481 -0.1477427 
0.7722917 0.8748698 -0.1477427 
0.9501312 -0.9485754 -0.1477427 
-0.6367099 0.8748698 -0.1477427 
-1.235637 0.9673095 -0.1477427 
-1.933836 -0.4365909 -0.1477427 
1.095849 -0.9774525 -0.1477427 
-0.944201 0.9763563 -0.1477427 
-1.089919 0.9834383 -0.1477427 
-2.023973 -0.1451552 -0.1477427 
0.9501312 0.9500301 -0.1477427 
-0.7984831 0.944838 -0.1477427 
1.095849 0.979141 -0.1477427 
-0.3613296 0.6940885 -0.1477427 
-0.4557555 0.729152 -0.1477427 
-0.2156117 0.6905818 -0.1477427 
-0.09319425 0.729152 -0.1477427 
1.970156 -0.5823088 -0.2425747 
0.07582402 -0.7280266 -0.2346501 
1.970156 0.5834341 -0.2397289 
-1.818508 -0.5823088 -0.2439501 
-1.818508 0.5834341 -0.2421565 
0.8044133 -0.8737445 -0.2303808 
-0.06989384 0.729152 -0.2140903 
0.07582402 0.729152 -0.219764 
0.8044133 0.8748698 -0.2345159 
0.192955 -0.7280266 -0.002024889 
2.186666 -0.1451552 -0.002024889 
2.197374 0.0005626678 -0.002024889 
0.07582402 -0.7665753 -0.002024889 
2.187356 0.1462805 -0.002024889 
-0.944201 -0.9865806 -0.002024889 
1.387285 -0.9781832 -0.002024889 
2.152795 0.2919984 -0.002024889 
-1.67279 -0.7727884 -0.002024889 
0.3672597 -0.6651586 -0.002024889 
1.241567 -0.9943048 -0.002024889 
-1.726071 -0.7280266 -0.002024889 
0.6586955 -0.8193114 -0.002024889 
2.115874 0.3930974 -0.002024889 
1.533003 -0.938059 -0.002024889 
-1.089919 -0.9917636 -0.002024889 
2.004841 0.5834341 -0.002024889 
1.677698 -0.8737445 -0.002024889 
-2.04682 0.0005626678 -0.002024889 
-1.818508 -0.629477 -0.002024889 
-0.7984831 -0.9566985 -0.002024889 
-1.853655 -0.5823088 -0.002024889 
-0.6527653 -0.890334 -0.002024889 
0.5689421 -0.7280266 -0.002024889 
1.824438 -0.7731162 -0.002024889 
1.67872 0.872237 -0.002024889 
-1.381355 -0.9348665 -0.002024889 
0.5129776 -0.6845748 -0.002024889 
-2.036732 0.1462805 -0.002024889 
-1.522332 -0.8737445 -0.002024889 
1.877429 -0.7280266 -0.002024889 
-0.5070474 -0.7874743 -0.002024889 
0.8044133 -0.9042609 -0.002024889 
1.824438 0.77127 -0.002024889 
-2.002315 0.2919984 -0.002024889 
-1.235637 -0.9731923 -0.002024889 
-0.5070474 0.7963569 -0.002024889 
0.2215419 0.7226863 -0.002024889 
0.7456012 -0.8737445 -0.002024889 
-0.4750873 -0.7280266 -0.002024889 
-1.964226 0.3959894 -0.002024889 
1.387285 0.9782324 -0.002024889 
0.9501312 -0.9610006 -0.002024889 
1.970156 -0.6305887 -0.002024889 
1.241567 0.9946165 -0.002024889 
-0.6111488 0.8748698 -0.002024889 
-0.2156117 -0.7347683 -0.002024889 
-1.964226 -0.3968439 -0.002024889 
1.533003 0.9383521 -0.002024889 
1.095849 -0.9887923 -0.002024889 
-2.002834 -0.2908731 -0.002024889 
-0.944201 0.986043 -0.002024889 
-0.2674028 -0.7280266 -0.002024889 
1.970156 0.6307492 -0.002024889 
-0.3613296 -0.7141429 -0.002024889 
-1.089919 0.9935877 -0.002024889 
-1.854787 0.5834341 -0.002024889 
-2.036566 -0.1451552 -0.002024889 
2.005932 -0.5823088 -0.002024889 
1.875111 0.729152 -0.002024889 
0.3672597 0.6779661 -0.002024889 
-1.818508 0.6320629 -0.002024889 
-0.7984831 0.9564898 -0.002024889 
-0.06989384 -0.7646739 -0.002024889 
0.07582402 0.7579024 -0.002024889 
2.096646 -0.4365909 -0.002024889 
0.5129776 0.6909845 -0.002024889 
-1.726197 0.729152 -0.002024889 
0.5742569 0.729152 -0.002024889 
-0.3613296 0.7049901 -0.002024889 
0.6586955 0.8125269 -0.002024889 
-1.67279 0.7740903 -0.002024889 
-0.4444362 0.729152 -0.002024889 
2.15305 -0.2908731 -0.002024889 
-0.2156117 0.7027628 -0.002024889 
0.7529225 0.8748698 -0.002024889 
-1.527072 0.8734934 -0.002024889 
-0.1031525 0.729152 -0.002024889 
0.8044133 0.9016573 -0.002024889 
0.9501312 0.9624345 -0.002024889 
-1.381355 0.9371605 -0.002024889 
1.095849 0.9902837 -0.002024889 
-1.235637 0.9781315 -0.002024889 
-0.2156117 -0.7280266 -0.07088757 
-0.944201 -0.9765239 0.143693 
0.1528554 -0.7280266 0.143693 
-1.089919 -0.9824123 0.143693 
-1.67279 -0.7591321 0.143693 
-0.7984831 -0.9416384 0.143693 
0.07582402 -0.7498757 0.143693 
0.2215419 -0.6997877 0.143693 
-0.6527653 -0.8791609 0.143693 
2.176307 -0.1451552 0.143693 
1.387285 -0.9672884 0.143693 
2.187063 0.0005626678 0.143693 
0.3672597 -0.6628644 0.143693 
-1.818508 -0.6132311 0.143693 
1.241567 -0.984821 0.143693 
-0.5070474 -0.7947483 0.143693 
0.6586955 -0.7982663 0.143693 
1.533003 -0.9255942 0.143693 
1.654682 -0.8737445 0.143693 
0.5834274 -0.7280266 0.143693 
-0.4461076 -0.7280266 0.143693 
-1.381355 -0.9233005 0.143693 
0.5129776 -0.6828327 0.143693 
2.176468 0.1462805 0.143693 
-0.3613296 -0.7077883 0.143693 
-1.500244 -0.8737445 0.143693 
-2.036518 0.0005626678 0.143693 
-0.2156117 -0.7135125 0.143693 
0.8044133 -0.8923565 0.143693 
-1.235637 -0.9656394 0.143693 
-2.025486 0.1462805 0.143693 
-0.5070474 0.7802713 0.143693 
-0.06989384 -0.7419584 0.143693 
0.9501312 -0.9511014 0.143693 
-0.6430173 0.8748698 0.143693 
-1.991183 0.2919984 0.143693 
1.824438 -0.7605089 0.143693 
2.141423 0.2919984 0.143693 
-1.964226 -0.367523 0.143693 
1.095849 -0.9792299 0.143693 
2.115874 0.3654714 0.143693 
-1.990303 -0.2908731 0.143693 
1.86279 -0.7280266 0.143693 
-1.964226 0.3689203 0.143693 
2.083711 0.4377162 0.143693 
-1.934438 -0.4365909 0.143693 
1.99204 0.5834341 0.143693 
1.970156 -0.613777 0.143693 
-1.933948 0.4377162 0.143693 
-0.944201 0.9769061 0.143693 
0.2215419 0.7005322 0.143693 
-1.089919 0.9830751 0.143693 
0.1376896 0.729152 0.143693 
1.67872 0.8628764 0.143693 
-2.025626 -0.1451552 0.143693 
-1.840973 0.5834341 0.143693 
2.08496 -0.4365909 0.143693 
0.3672597 0.6496334 0.143693 
2.115874 -0.3660392 0.143693 
-0.7984831 0.9449964 0.143693 
1.824438 0.760561 0.143693 
2.142104 -0.2908731 0.143693 
1.387285 0.9677193 0.143693 
-1.710878 0.729152 0.143693 
0.07582402 0.7456255 0.143693 
-0.3613296 0.7037182 0.143693 
1.241567 0.9846127 0.143693 
-0.4358101 0.729152 0.143693 
1.533003 0.928112 0.143693 
0.5129776 0.6810875 0.143693 
-0.2156117 0.6924949 0.143693 
-1.527072 0.8622978 0.143693 
0.5750604 0.729152 0.143693 
-0.08955407 0.729152 0.143693 
0.6586955 0.8018501 0.143693 
-1.381355 0.9258509 0.143693 
0.7698436 0.8748698 0.143693 
-1.235637 0.9666438 0.143693 
0.9501312 0.9517944 0.143693 
1.095849 0.9795151 0.143693 
-0.2156117 -0.7280266 0.0682199 
2.142216 -0.1451552 0.2894108 
-0.944201 -0.9443984 0.2894108 
1.387285 -0.9325286 0.2894108 
2.153982 0.0005626678 0.2894108 
2.115874 0.2656519 0.2894108 
-2.001818 0.0005626678 0.2894108 
-1.089919 -0.9511425 0.2894108 
-1.990405 0.1462805 0.2894108 
-1.67279 -0.7181203 0.2894108 
1.241567 -0.9518453 0.2894108 
-1.964226 0.2704935 0.2894108 
-1.803502 -0.5823088 0.2894108 
-0.7984831 -0.9100195 0.2894108 
0.2215419 -0.6817845 0.2894108 
1.533003 -0.889773 0.2894108 
-1.895427 0.4377162 0.2894108 
-0.7050821 -0.8737445 0.2894108 
-1.381355 -0.8892865 0.2894108 
-1.818508 0.5611432 0.2894108 
2.141928 0.1462805 0.2894108 
-0.6527653 -0.8514858 0.2894108 
2.044576 0.4377162 0.2894108 
1.67872 -0.8237524 0.2894108 
-0.5070474 -0.7538811 0.2894108 
-1.67279 0.7205074 0.2894108 
-0.6527653 0.8512962 0.2894108 
0.2215419 0.6635907 0.2894108 
1.815186 -0.7280266 0.2894108 
0.07582402 -0.7031269 0.2894108 
0.07582402 0.7054555 0.2894108 
1.970156 0.5586119 0.2894108 
-0.3613296 -0.6673983 0.2894108 
-0.709105 0.8748698 0.2894108 
0.3672597 -0.6201302 0.2894108 
-0.2156117 -0.6692233 0.2894108 
0.3672597 0.5973747 0.2894108 
1.955752 -0.5823088 0.2894108 
-1.527072 0.8250949 0.2894108 
-0.5070474 0.7552183 0.2894108 
0.6586955 -0.7612765 0.2894108 
-1.423664 0.8748698 0.2894108 
-1.235637 -0.9327708 0.2894108 
-0.06989384 -0.696553 0.2894108 
-0.944201 0.9434512 0.2894108 
1.824438 0.7198298 0.2894108 
0.5129776 0.621763 0.2894108 
-1.089919 0.9494352 0.2894108 
-1.235637 0.9317651 0.2894108 
0.5129776 -0.6284145 0.2894108 
0.6247561 0.729152 0.2894108 
-0.7984831 0.9093256 0.2894108 
2.046897 -0.4365909 0.2894108 
-1.527072 -0.8238379 0.2894108 
1.67872 0.8250592 0.2894108 
0.9501312 -0.912585 0.2894108 
-0.3613296 0.6781371 0.2894108 
0.8427608 -0.8737445 0.2894108 
2.108876 -0.2908731 0.2894108 
1.579188 0.8748698 0.2894108 
1.095849 -0.9450241 0.2894108 
-0.2156117 0.660115 0.2894108 
-1.896273 -0.4365909 0.2894108 
0.8044133 0.8597331 0.2894108 
1.387285 0.933733 0.2894108 
-0.06989384 0.7027199 0.2894108 
-1.957573 -0.2908731 0.2894108 
1.241567 0.9525514 0.2894108 
-1.990673 -0.1451552 0.2894108 
0.9501312 0.9152808 0.2894108 
1.095849 0.9471231 0.2894108 
-1.818508 0.5834341 0.240335 
0.07582402 -0.7280266 0.2226586 
1.970156 0.5834341 0.2361403 
0.8044133 -0.8737445 0.2354977 
0.07582402 0.729152 0.200979 
0.8044133 0.8748698 0.2328351 
-1.945829 0.0005626678 0.4351287 
2.097266 0.0005626678 0.4351287 
1.387285 -0.8739049 0.4351287 
-0.944201 -0.8837053 0.4351287 
2.085622 0.1462805 0.4351287 
-1.089919 -0.890226 0.4351287 
1.241567 -0.8914225 0.4351287 
-0.8772805 -0.8737445 0.4351287 
-1.934417 0.1462805 0.4351287 
-1.67279 -0.6386728 0.4351287 
-1.896081 0.2919984 0.4351287 
0.2215419 -0.5880671 0.4351287 
-0.7984831 -0.8542345 0.4351287 
-1.829067 0.4377162 0.4351287 
-0.6527653 -0.78771 0.4351287 
2.046294 0.2919984 0.4351287 
-0.3613296 0.5792072 0.4351287 
-0.5616601 -0.7280266 0.4351287 
0.07582402 -0.6267667 0.4351287 
1.533003 -0.8313406 0.4351287 
-0.4175876 0.5834341 0.4351287 
-0.5070474 -0.6898316 0.4351287 
-1.727269 -0.5823088 0.4351287 
1.67872 -0.7543701 0.4351287 
0.2215419 0.5788095 0.4351287 
1.978969 0.4377162 0.4351287 
-1.725953 0.5834341 0.4351287 
-0.2924256 0.5834341 0.4351287 
-0.406569 -0.5823088 0.4351287 
-1.67279 0.6392081 0.4351287 
0.3672597 0.5215852 0.4351287 
-0.7984831 0.853008 0.4351287 
-1.563766 0.729152 0.4351287 
1.875782 0.5834341 0.4351287 
-0.8969202 0.8748698 0.4351287 
0.6586955 -0.6937827 0.4351287 
-0.06989384 -0.6280376 0.4351287 
-0.5070474 0.6781924 0.4351287 
0.5566306 -0.5823088 0.4351287 
-0.1833603 -0.5823088 0.4351287 
-1.235078 -0.8737445 0.4351287 
-1.381355 0.8298213 0.4351287 
-0.3613296 -0.5525403 0.4351287 
-0.5699286 0.729152 0.4351287 
1.533003 0.8320689 0.4351287 
0.5129776 0.5248919 0.4351287 
-1.527072 -0.752472 0.4351287 
-1.235637 0.8727765 0.4351287 
-0.6527653 0.7892087 0.4351287 
1.388514 0.8748698 0.4351287 
1.824438 -0.6418096 0.4351287 
-1.381355 -0.8295496 0.4351287 
1.095849 -0.8853353 0.4351287 
0.5665631 0.5834341 0.4351287 
1.824438 0.6384573 0.4351287 
-1.089919 0.8882394 0.4351287 
1.880862 -0.5823088 0.4351287 
1.025999 -0.8737445 0.4351287 
1.71648 0.729152 0.4351287 
0.07582402 0.628778 0.4351287 
-0.2156117 0.5880375 0.4351287 
1.970156 -0.4587461 0.4351287 
0.8044133 -0.7896016 0.4351287 
-1.818508 -0.4572711 0.4351287 
-0.06989384 0.6280844 0.4351287 
0.7057934 -0.7280266 0.4351287 
0.6586955 0.6893737 0.4351287 
0.9501312 -0.8533539 0.4351287 
2.047191 -0.2908731 0.4351287 
-1.896081 -0.2908731 0.4351287 
1.241567 0.8931141 0.4351287 
0.7049315 0.729152 0.4351287 
2.084827 -0.1451552 0.4351287 
-1.934155 -0.1451552 0.4351287 
0.3672597 -0.5199687 0.4351287 
0.8044133 0.7968721 0.4351287 
0.5129776 -0.5283999 0.4351287 
0.9501312 0.8577414 0.4351287 
1.019165 0.8748698 0.4351287 
1.095849 0.8874972 0.4351287 
0.3672597 -0.5823088 0.358536 
2.115874 -0.1451552 0.3644354 
1.533003 -0.8737445 0.3384316 
2.115874 0.1462805 0.3653986 
-0.5070474 -0.7280266 0.3518517 
0.6586955 -0.7280266 0.3627069 
-1.964226 0.1462805 0.365298 
0.5129776 -0.5823088 0.3825784 
1.533003 0.8748698 0.339937 
0.9501312 -0.8737445 0.3881299 
-1.964226 -0.1451552 0.3673484 
-0.7984831 0.8748698 0.3843956 
-1.381355 0.8748698 0.335108 
-0.5070474 0.729152 0.3448389 
0.5129776 0.5834341 0.3492696 
0.6586955 0.729152 0.3497901 
-1.854078 0.0005626678 0.5808465 
-0.5070474 0.5630233 0.5808465 
-0.944201 -0.7969416 0.5808465 
-1.842421 0.1462805 0.5808465 
0.9501312 -0.7583718 0.5808465 
-1.089919 -0.804184 0.5808465 
-1.818508 0.2494533 0.5808465 
-1.381355 -0.7336525 0.5808465 
0.8791902 -0.7280266 0.5808465 
1.824438 0.5098245 0.5808465 
-0.7984831 -0.7554387 0.5808465 
0.2215419 0.432997 0.5808465 
1.387285 -0.7845095 0.5808465 
-0.3613296 0.4038959 0.5808465 
-1.729025 0.4377162 0.5808465 
-0.7316054 -0.7280266 0.5808465 
1.241567 -0.805907 0.5808465 
-1.67279 0.5121965 0.5808465 
0.8044133 -0.6894571 0.5808465 
-0.4192529 0.4377162 0.5808465 
1.75509 0.5834341 0.5808465 
1.533003 -0.7355238 0.5808465 
-0.2156117 0.4279804 0.5808465 
-0.6527653 -0.6884638 0.5808465 
0.6739197 -0.5823088 0.5808465 
-1.604261 0.5834341 0.5808465 
-0.5334636 -0.5823088 0.5808465 
2.005734 0.0005626678 0.5808465 
-1.527072 0.6479831 0.5808465 
-0.06989384 0.4966307 0.5808465 
1.67872 -0.6506686 0.5808465 
0.3672597 0.3400264 0.5808465 
-1.390922 0.729152 0.5808465 
1.992626 0.1462805 0.5808465 
1.761121 -0.5823088 0.5808465 
0.07582402 0.4964101 0.5808465 
1.970156 0.2425654 0.5808465 
-1.235637 0.7809443 0.5808465 
-0.4212588 -0.4365909 0.5808465 
-1.527072 -0.6478177 0.5808465 
1.824438 -0.5142975 0.5808465 
-0.944201 0.7948244 0.5808465 
-1.605288 -0.5823088 0.5808465 
-0.3613296 -0.3971149 0.5808465 
0.5129776 0.3371832 0.5808465 
1.881405 -0.4365909 0.5808465 
-0.2156117 -0.4312732 0.5808465 
-1.089919 0.803041 0.5808465 
1.953716 0.2919984 0.5808465 
0.5662177 0.4377162 0.5808465 
-0.06989384 -0.494332 0.5808465 
-1.235637 -0.7827836 0.5808465 
1.956887 -0.2908731 0.5808465 
-0.7984831 0.7553918 0.5808465 
0.6586955 0.5730224 0.5808465 
1.87759 0.4377162 0.5808465 
-0.6527653 0.6897697 0.5808465 
1.095849 -0.7990276 0.5808465 
0.07582402 -0.4917792 0.5808465 
-0.7295891 0.729152 0.5808465 
-1.67279 -0.5101242 0.5808465 
1.387285 0.7845445 0.5808465 
-1.72723 -0.4365909 0.5808465 
0.2215419 -0.440819 0.5808465 
1.99383 -0.1451552 0.5808465 
1.241567 0.8068175 0.5808465 
0.8044133 0.699991 0.5808465 
-1.805237 -0.2908731 0.5808465 
1.533003 0.7358685 0.5808465 
0.8645322 0.729152 0.5808465 
0.3672597 -0.3418403 0.5808465 
0.9501312 0.7643776 0.5808465 
-1.842509 -0.1451552 0.5808465 
1.67872 0.649878 0.5808465 
1.095849 0.8009665 0.5808465 
0.5828846 -0.4365909 0.5808465 
0.5129776 -0.3339878 0.5808465 
-1.67279 -0.5823088 0.5086892 
1.824438 0.5834341 0.5056176 
0.07582402 -0.5823088 0.4959788 
-0.6527653 -0.7280266 0.5269754 
-1.67279 0.5834341 0.5069909 
0.3672597 0.4377162 0.5135939 
1.67872 -0.7280266 0.4806864 
-1.527072 0.729152 0.4743183 
-0.06989384 -0.5823088 0.49261 
0.07582402 0.5834341 0.4866717 
0.8044133 -0.7280266 0.5313725 
1.824438 -0.5823088 0.5128984 
0.5129776 0.4377162 0.5161736 
1.67872 0.729152 0.4764004 
0.3672597 -0.4365909 0.5154243 
0.5129776 -0.4365909 0.4983826 
-0.06989384 0.5834341 0.4920564 
-0.6527653 0.729152 0.5267208 
-1.726843 0.0005626678 0.7265644 
0.2155223 0.0005626678 0.7265644 
0.1662333 0.1462805 0.7265644 
1.387285 -0.6534038 0.7265644 
-0.5070474 0.2845199 0.7265644 
0.07582402 0.210062 0.7265644 
-0.4469625 -0.1451552 0.7265644 
-1.712792 0.1462805 0.7265644 
1.241567 -0.6784862 0.7265644 
1.824438 0.2665243 0.7265644 
-0.944201 -0.6688132 0.7265644 
0.5756717 0.0005626678 0.7265644 
1.533003 -0.5927187 0.7265644 
-1.67279 0.2684162 0.7265644 
-1.089919 -0.6783565 0.7265644 
0.5785198 0.1462805 0.7265644 
-1.381355 -0.5872722 0.7265644 
0.6254771 0.2919984 0.7265644 
-0.7984831 -0.6230003 0.7265644 
0.9501312 -0.6220776 0.7265644 
0.6586955 0.3633115 0.7265644 
-0.727914 -0.5823088 0.7265644 
-0.5782244 0.4377162 0.7265644 
-1.235637 -0.6517805 0.7265644 
1.67872 -0.4849223 0.7265644 
-1.567428 0.4377162 0.7265644 
-0.6527653 0.5194538 0.7265644 
0.8681931 -0.5823088 0.7265644 
1.72254 -0.4365909 0.7265644 
0.7041936 0.4377162 0.7265644 
-0.4466375 0.0005626678 0.7265644 
-1.67279 -0.2703757 0.7265644 
-0.6527653 -0.529114 0.7265644 
-0.7402459 0.5834341 0.7265644 
-1.527072 0.4809442 0.7265644 
1.719462 0.4377162 0.7265644 
-0.5657289 -0.4365909 0.7265644 
1.815912 -0.2908731 0.7265644 
-0.4677473 0.1462805 0.7265644 
1.095849 -0.667477 0.7265644 
0.8044133 0.5387714 0.7265644 
-0.5070474 -0.3081279 0.7265644 
-0.1849108 0.0005626678 0.7265644 
-1.3928 0.5834341 0.7265644 
1.67872 0.4813335 0.7265644 
0.8728428 0.5834341 0.7265644 
-0.06989384 -0.1845274 0.7265644 
0.6586955 -0.3562793 0.7265644 
-1.235637 0.6514411 0.7265644 
-0.07371426 0.1462805 0.7265644 
-1.71127 -0.1451552 0.7265644 
-0.1262496 -0.1451552 0.7265644 
0.6263008 -0.2908731 0.7265644 
-1.089919 0.6773036 0.7265644 
-1.527072 -0.4761491 0.7265644 
0.9501312 0.6275651 0.7265644 
1.548687 0.5834341 0.7265644 
1.864906 -0.1451552 0.7265644 
0.1288795 -0.1451552 0.7265644 
1.095849 0.6722188 0.7265644 
-0.944201 0.6670132 0.7265644 
1.880422 0.0005626678 0.7265644 
-1.56683 -0.4365909 0.7265644 
-0.7984831 0.6172087 0.7265644 
1.861539 0.1462805 0.7265644 
0.07582402 -0.1879961 0.7265644 
1.241567 0.6799972 0.7265644 
1.387285 0.6564953 0.7265644 
0.5879848 -0.1451552 0.7265644 
0.8044133 -0.5367064 0.7265644 
0.7081585 -0.4365909 0.7265644 
-0.3613296 -0.1451552 0.6932054 
-1.089919 -0.7280266 0.6759691 
-1.818508 0.0005626678 0.6285615 
-0.3613296 0.0005626678 0.6817703 
0.2215419 0.1462805 0.7105205 
-1.527072 -0.5823088 0.6465056 
-0.944201 -0.7280266 0.6666245 
-0.2156117 -0.1451552 0.696754 
0.3672597 0.0005626678 0.6639588 
0.07582402 0.2919984 0.6995323 
0.2215419 0.2919984 0.6688001 
0.3672597 0.1462805 0.6545529 
1.241567 -0.7280266 0.6764867 
0.3672597 0.2919984 0.6079187 
-0.2156117 -0.2908731 0.6690817 
1.824438 0.4377162 0.6381862 
-0.6527653 -0.5823088 0.6875536 
0.9501312 -0.7280266 0.6211672 
1.387285 -0.7280266 0.6525948 
1.67872 0.5834341 0.6469481 
0.5129776 0.0005626678 0.6728175 
-0.5070474 0.4377162 0.6592228 
-0.5070474 -0.4365909 0.6649499 
0.5129776 0.1462805 0.6673779 
-1.67279 0.4377162 0.6394572 
-0.6527653 0.5834341 0.6838427 
-0.06989384 -0.2908731 0.6966579 
1.970156 0.0005626678 0.6296902 
0.5129776 0.2919984 0.6105099 
-0.3613296 -0.2908731 0.6574073 
0.8044133 -0.5823088 0.6919091 
-1.527072 0.5834341 0.646461 
0.07582402 -0.2908731 0.6985781 
0.07582402 0.4377162 0.6267092 
-1.235637 -0.7280266 0.6502836 
1.095849 -0.7280266 0.6678624 
-0.06989384 -0.4365909 0.6238337 
-0.3613296 0.1462805 0.6846302 
1.241567 0.729152 0.6775088 
0.6586955 0.4377162 0.6906564 
-1.67279 -0.4365909 0.638968 
0.07582402 -0.4365909 0.621901 
1.387285 0.729152 0.6525943 
1.67872 -0.5823088 0.6498876 
-1.235637 0.729152 0.6474197 
0.8044133 0.5834341 0.6941078 
-0.2156117 0.1462805 0.6865335 
-1.089919 0.729152 0.6741211 
0.9501312 0.729152 0.6254308 
-0.3613296 0.2919984 0.6437273 
1.824438 -0.4365909 0.6417239 
0.2215419 -0.2908731 0.6749387 
-0.2156117 0.2919984 0.6501601 
1.095849 0.729152 0.6694312 
0.3672597 -0.2908731 0.6050718 
-0.06989384 0.2919984 0.6840661 
0.6586955 -0.4365909 0.6856985 
0.5129776 -0.2908731 0.6173847 
-0.06989384 0.4377162 0.6269515 
0.2215419 -0.1451552 0.7075586 
-0.944201 0.729152 0.663409 
0.3672597 -0.1451552 0.6557183 
0.5129776 -0.1451552 0.6569359 
-0.6038855 0.0005626678 0.8722823 
-1.523964 0.0005626678 0.8722823 
-1.426564 -0.2908731 0.8722823 
0.9501312 -0.3965585 0.8722823 
1.387285 -0.4414086 0.8722823 
0.8334353 -0.2908731 0.8722823 
-1.500747 -0.1451552 0.8722823 
1.241567 -0.4761677 0.8722823 
1.678437 0.0005626678 0.8722823 
1.095849 -0.460772 0.8722823 
0.7344792 0.0005626678 0.8722823 
-1.503447 0.1462805 0.8722823 
-0.623592 0.1462805 0.8722823 
1.026857 -0.4365909 0.8722823 
0.7602386 0.1462805 0.8722823 
1.656262 0.1462805 0.8722823 
-1.381355 -0.3408753 0.8722823 
-1.426548 0.2919984 0.8722823 
0.8044133 0.2535357 0.8722823 
-0.944201 -0.4610232 0.8722823 
-1.089919 -0.4726065 0.8722823 
-1.381355 0.3427095 0.8722823 
1.533003 -0.346754 0.8722823 
-0.6527653 0.2165935 0.8722823 
1.581027 0.2919984 0.8722823 
-1.235637 0.4342496 0.8722823 
-1.23345 -0.4365909 0.8722823 
0.8044133 -0.238682 0.8722823 
-0.8711677 -0.4365909 0.8722823 
1.582548 -0.2908731 0.8722823 
0.7615464 -0.1451552 0.8722823 
0.9501312 0.4013247 0.8722823 
-0.7984831 -0.3923045 0.8722823 
1.656499 -0.1451552 0.8722823 
1.533003 0.3460751 0.8722823 
-0.6960409 0.2919984 0.8722823 
-0.7014841 -0.2908731 0.8722823 
1.017714 0.4377162 0.8722823 
-1.089919 0.4681473 0.8722823 
1.394575 0.4377162 0.8722823 
-0.7984831 0.3907115 0.8722823 
1.095849 0.4641557 0.8722823 
-0.6527653 -0.221163 0.8722823 
-0.8871317 0.4377162 0.8722823 
1.241567 0.4762435 0.8722823 
-0.6244686 -0.1451552 0.8722823 
-0.944201 0.4563947 0.8722823 
-1.527072 -0.2908731 0.8211153 
-1.67279 0.0005626678 0.7728424 
-0.5070474 -0.1451552 0.7848876 
0.07582402 0.0005626678 0.761642 
-1.67279 0.1462805 0.7599964 
-0.5070474 0.0005626678 0.8052039 
0.9501312 -0.5823088 0.7579875 
0.07582402 0.1462805 0.7471058 
1.095849 -0.5823088 0.7958169 
1.241567 -0.5823088 0.8059881 
-0.5070474 0.1462805 0.7934277 
-1.089919 -0.5823088 0.8045833 
1.387285 -0.5823088 0.7839541 
0.6586955 0.0005626678 0.8198555 
-0.944201 -0.5823088 0.7975798 
-0.06989384 0.0005626678 0.7677946 
-1.527072 0.2919984 0.8234138 
-0.7984831 -0.5823088 0.7579796 
0.6586955 0.1462805 0.8055668 
1.824438 0.0005626678 0.7735243 
-1.235637 -0.5823088 0.7811456 
-1.381355 0.4377162 0.8294065 
1.533003 -0.4365909 0.8323822 
-0.6527653 -0.4365909 0.7858965 
1.67872 0.2919984 0.8232927 
-0.7984831 0.4377162 0.8504539 
-0.6527653 -0.2908731 0.8536353 
1.533003 0.4377162 0.8304489 
1.241567 0.5834341 0.8045285 
0.8044133 0.4377162 0.7921646 
-1.235637 0.5834341 0.7798743 
1.67872 -0.4365909 0.7550585 
1.387285 0.5834341 0.7837384 
0.6586955 -0.1451552 0.8025706 
-1.089919 0.5834341 0.8008342 
-1.381355 -0.4365909 0.8275473 
1.67872 -0.2908731 0.8232939 
0.8044133 -0.4365909 0.7931573 
-0.944201 0.5834341 0.7926619 
0.9501312 0.5834341 0.7598751 
1.824438 -0.1451552 0.7599332 
1.095849 0.5834341 0.7979953 
-0.6527653 0.4377162 0.7815239 
-1.089919 0.0005626678 0.9914756 
-1.381355 0.0005626678 0.9357877 
-1.089919 0.1462805 0.9822068 
0.8044133 0.0005626678 0.9060557 
-0.944201 0.0005626678 0.9853783 
-1.381355 0.1462805 0.9242189 
-1.381355 -0.1451552 0.9253602 
-0.944201 0.1462805 0.9762204 
1.095849 -0.2908731 0.9443974 
-0.7984831 0.0005626678 0.9586396 
1.095849 -0.1451552 0.97804 
-1.235637 -0.2908731 0.9327085 
1.387285 0.1462805 0.9667611 
1.241567 -0.2908731 0.9507413 
0.9501312 -0.2908731 0.9143848 
-1.235637 -0.1451552 0.9666624 
-1.235637 0.0005626678 0.9762006 
1.241567 -0.1451552 0.9830165 
-1.089919 -0.2908731 0.9501965 
-1.235637 0.1462805 0.9654341 
-1.089919 -0.1451552 0.9810021 
0.9501312 -0.1451552 0.9512119 
0.9501312 0.0005626678 0.9615014 
1.387285 0.2919984 0.9328768 
-0.7984831 0.1462805 0.9466558 
-1.235637 0.2919984 0.9311359 
1.533003 0.1462805 0.926616 
1.095849 0.0005626678 0.9887903 
-1.089919 0.2919984 0.9486816 
1.533003 0.2919984 0.8908486 
-0.944201 -0.2908731 0.9440641 
1.241567 0.0005626678 0.9929898 
1.533003 0.0005626678 0.9385517 
-0.7984831 -0.2908731 0.90926 
-0.944201 0.2919984 0.9429188 
1.241567 0.2919984 0.949616 
-0.944201 -0.1451552 0.9751747 
-0.7984831 0.2919984 0.9106009 
-0.7984831 -0.1451552 0.9470689 
-0.6527653 0.0005626678 0.8994911 
1.387285 -0.2908731 0.9329515 
1.533003 -0.2908731 0.8912416 
1.387285 -0.1451552 0.9672048 
1.533003 -0.1451552 0.9264164 
1.387285 0.0005626678 0.9777493 
0.9501312 0.1462805 0.9504559 
0.9501312 0.2919984 0.9149253 
1.095849 0.1462805 0.9784002 
1.241567 0.1462805 0.9827466 
1.095849 0.2919984 0.9439375 
3 3 9 46 
3 62 47 51 
3 51 68 62 
3 63 43 56 
3 56 6 63 
3 14 48 11 
3 53 48 14 
3 16 44 12 
3 48 46 9 
3 9 11 48 
3 71 62 68 
3 52 45 49 
3 49 54 52 
3 10 50 5 
3 72 63 2 
3 57 44 16 
3 16 66 57 
3 20 53 14 
3 55 3 46 
3 2 0 72 
3 68 74 71 
3 49 59 57 
3 57 61 49 
3 65 48 53 
3 68 51 78 
3 78 80 68 
3 53 70 65 
3 74 68 80 
3 6 2 63 
3 46 60 55 
3 80 84 74 
3 54 49 61 
3 58 55 60 
3 61 64 54 
3 51 65 70 
3 4 55 15 
3 60 73 58 
3 47 65 51 
3 1 71 74 
3 77 27 13 
3 56 77 13 
3 3 55 4 
3 66 16 22 
3 74 7 1 
3 76 53 20 
3 70 53 76 
3 69 66 22 
3 28 69 22 
3 78 70 76 
3 51 70 78 
3 75 57 66 
3 58 8 15 
3 60 46 48 
3 52 67 17 
3 61 57 75 
3 74 84 18 
3 76 20 37 
3 64 61 75 
3 24 52 17 
3 48 65 60 
3 55 58 15 
3 37 42 76 
3 75 82 64 
3 73 60 65 
3 65 47 73 
3 25 56 13 
3 30 17 67 
3 78 76 42 
3 5 45 23 
3 50 45 5 
3 6 56 25 
3 79 52 54 
3 67 52 79 
3 24 23 45 
3 81 67 79 
3 35 78 42 
3 45 52 24 
3 30 67 81 
3 86 66 69 
3 75 66 86 
3 79 54 64 
3 64 85 79 
3 19 8 58 
3 77 75 86 
3 58 83 19 
3 82 75 77 
3 7 74 18 
3 72 79 85 
3 81 79 72 
3 31 69 28 
3 59 50 10 
3 29 59 10 
3 32 59 29 
3 34 81 39 
3 30 81 34 
3 83 87 33 
3 19 83 33 
3 32 12 44 
3 86 69 31 
3 36 86 31 
3 39 72 0 
3 40 86 36 
3 59 32 44 
3 33 87 38 
3 44 57 59 
3 80 78 35 
3 81 72 39 
3 35 26 80 
3 27 86 40 
3 88 58 73 
3 83 58 88 
3 45 50 59 
3 59 49 45 
3 77 86 27 
3 89 83 88 
3 87 83 89 
3 21 80 26 
3 84 80 21 
3 88 73 47 
3 47 62 88 
3 71 88 62 
3 89 88 71 
3 18 84 21 
3 38 89 41 
3 87 89 38 
3 85 64 82 
3 82 43 85 
3 72 85 43 
3 43 63 72 
3 1 89 71 
3 41 89 1 
3 43 82 77 
3 77 56 43 
3 98 166 104 
3 163 160 1 
3 1 7 163 
3 97 162 93 
3 9 3 171 
3 161 167 94 
3 94 96 161 
3 18 169 7 
3 175 0 2 
3 2 121 175 
3 9 123 162 
3 162 11 9 
3 101 172 118 
3 164 166 98 
3 98 91 164 
3 102 94 167 
3 173 170 122 
3 122 125 173 
3 2 6 178 
3 165 160 105 
3 105 92 165 
3 95 181 112 
3 169 163 7 
3 142 173 125 
3 17 161 24 
3 167 161 17 
3 174 173 142 
3 14 162 97 
3 100 163 169 
3 118 161 96 
3 121 178 90 
3 26 182 21 
3 11 162 14 
3 112 186 114 
3 150 174 142 
3 181 186 112 
3 172 161 118 
3 2 178 121 
3 177 167 17 
3 102 167 177 
3 35 194 26 
3 184 194 35 
3 134 179 130 
3 17 30 177 
3 194 182 26 
3 123 93 162 
3 12 173 16 
3 170 173 12 
3 140 168 109 
3 13 187 25 
3 102 177 111 
3 109 168 139 
3 174 28 22 
3 173 174 22 
3 186 197 113 
3 192 195 13 
3 27 192 13 
3 16 173 22 
3 180 97 99 
3 113 114 186 
3 157 182 194 
3 14 97 180 
3 126 113 197 
3 187 13 195 
3 28 174 150 
3 195 110 187 
3 201 169 18 
3 14 180 20 
3 187 178 6 
3 185 28 150 
3 21 201 18 
3 147 176 140 
3 108 180 99 
3 25 187 6 
3 138 196 95 
3 180 190 37 
3 20 180 37 
3 103 178 187 
3 108 190 180 
3 152 185 150 
3 139 164 91 
3 182 201 21 
3 171 138 141 
3 141 120 171 
3 189 177 30 
3 168 164 139 
3 197 186 8 
3 8 19 197 
3 34 189 30 
3 111 177 189 
3 196 171 3 
3 169 201 117 
3 4 196 3 
3 164 168 140 
3 116 190 108 
3 119 189 124 
3 103 90 178 
3 28 185 31 
3 200 197 19 
3 111 189 119 
3 106 187 110 
3 138 171 196 
3 154 185 152 
3 183 179 134 
3 39 189 34 
3 42 37 190 
3 100 169 117 
3 155 185 154 
3 134 143 183 
3 39 133 124 
3 189 39 124 
3 126 197 200 
3 181 95 196 
3 196 15 181 
3 33 200 19 
3 170 183 143 
3 176 164 140 
3 175 39 0 
3 133 39 175 
3 131 202 137 
3 199 190 116 
3 42 190 199 
3 31 185 155 
3 158 31 155 
3 103 187 106 
3 182 157 135 
3 201 182 135 
3 200 202 131 
3 42 184 35 
3 199 184 42 
3 121 115 175 
3 186 181 15 
3 133 175 115 
3 8 186 15 
3 126 200 131 
3 36 198 40 
3 158 198 36 
3 143 122 170 
3 128 201 135 
3 15 196 4 
3 137 202 145 
3 129 192 136 
3 195 192 129 
3 117 201 128 
3 149 188 146 
3 110 195 129 
3 31 158 36 
3 105 163 144 
3 160 163 105 
3 198 192 27 
3 27 40 198 
3 191 101 107 
3 188 191 107 
3 202 200 33 
3 38 202 33 
3 116 127 199 
3 146 188 107 
3 203 202 38 
3 123 171 120 
3 9 171 123 
3 163 100 144 
3 184 199 127 
3 158 159 198 
3 130 188 149 
3 193 188 130 
3 127 132 184 
3 192 198 159 
3 159 136 192 
3 179 193 130 
3 151 176 147 
3 204 176 151 
3 202 203 148 
3 145 202 148 
3 166 176 204 
3 164 176 166 
3 41 203 38 
3 188 193 10 
3 5 188 10 
3 191 188 5 
3 153 204 151 
3 165 203 41 
3 148 203 165 
3 104 204 153 
3 166 204 104 
3 172 191 23 
3 101 191 172 
3 1 165 41 
3 160 165 1 
3 24 172 23 
3 161 172 24 
3 23 191 5 
3 156 184 132 
3 194 184 156 
3 148 165 92 
3 157 194 156 
3 29 183 32 
3 179 183 29 
3 193 179 29 
3 10 193 29 
3 183 170 12 
3 12 32 183 
3 235 294 209 
3 117 301 100 
3 313 299 98 
3 104 313 98 
3 291 298 210 
3 210 212 291 
3 90 103 297 
3 215 289 211 
3 233 296 226 
3 293 296 233 
3 307 313 104 
3 294 235 97 
3 135 321 128 
3 222 303 217 
3 110 300 106 
3 292 290 92 
3 97 93 294 
3 225 310 220 
3 91 98 299 
3 206 321 214 
3 128 321 206 
3 305 313 208 
3 299 313 305 
3 298 219 210 
3 92 105 292 
3 117 128 206 
3 301 117 206 
3 298 291 114 
3 114 113 298 
3 296 238 226 
3 295 290 292 
3 144 292 105 
3 337 302 305 
3 328 302 337 
3 97 235 244 
3 99 97 244 
3 259 99 244 
3 122 337 125 
3 328 337 122 
3 326 292 144 
3 292 306 295 
3 107 289 215 
3 126 298 113 
3 302 91 299 
3 219 298 126 
3 299 305 302 
3 310 95 213 
3 303 107 215 
3 296 293 96 
3 217 303 215 
3 101 289 107 
3 332 292 326 
3 96 94 296 
3 306 292 332 
3 311 308 295 
3 336 326 144 
3 289 309 229 
3 230 305 208 
3 337 305 230 
3 341 337 230 
3 103 300 207 
3 144 100 336 
3 314 99 259 
3 125 341 142 
3 229 211 289 
3 297 103 207 
3 205 297 207 
3 106 300 103 
3 238 296 94 
3 94 102 238 
3 218 304 115 
3 115 121 218 
3 309 293 233 
3 337 341 125 
3 259 267 314 
3 131 317 232 
3 224 131 232 
3 274 314 267 
3 304 218 216 
3 220 310 213 
3 313 344 237 
3 307 344 313 
3 233 229 309 
3 126 131 224 
3 208 313 237 
3 340 326 336 
3 213 320 231 
3 332 326 340 
3 223 90 228 
3 238 312 261 
3 99 314 108 
3 147 332 151 
3 121 90 223 
3 237 344 247 
3 102 312 238 
3 324 314 274 
3 277 324 274 
3 309 289 101 
3 258 341 230 
3 108 314 324 
3 261 312 270 
3 218 121 223 
3 219 126 224 
3 150 341 258 
3 295 140 311 
3 111 312 102 
3 232 317 236 
3 228 297 241 
3 347 150 258 
3 142 341 150 
3 101 118 309 
3 306 332 147 
3 108 324 116 
3 273 347 258 
3 90 297 228 
3 137 317 131 
3 320 291 212 
3 96 309 118 
3 293 309 96 
3 279 324 277 
3 212 231 320 
3 150 347 152 
3 241 297 205 
3 253 318 248 
3 340 343 153 
3 111 322 276 
3 312 111 276 
3 112 213 95 
3 320 213 112 
3 136 319 129 
3 315 319 136 
3 137 325 242 
3 319 263 110 
3 110 129 319 
3 291 320 112 
3 109 311 140 
3 319 315 257 
3 316 311 109 
3 257 251 319 
3 116 324 279 
3 283 116 279 
3 112 114 291 
3 263 319 251 
3 295 306 147 
3 243 327 239 
3 317 137 242 
3 270 312 276 
3 236 317 242 
3 250 327 243 
3 145 325 137 
3 120 327 250 
3 140 295 147 
3 151 340 153 
3 119 322 111 
3 124 322 119 
3 300 110 263 
3 348 347 273 
3 148 325 145 
3 268 300 263 
3 283 333 127 
3 318 323 248 
3 316 323 318 
3 207 300 268 
3 242 325 246 
3 332 340 151 
3 154 347 348 
3 265 248 323 
3 152 347 154 
3 276 322 278 
3 246 330 249 
3 154 348 155 
3 325 330 246 
3 322 124 281 
3 148 330 325 
3 127 116 283 
3 255 120 250 
3 153 307 104 
3 281 278 322 
3 123 120 255 
3 333 338 132 
3 272 329 222 
3 249 308 254 
3 280 348 273 
3 330 308 249 
3 132 127 333 
3 343 307 153 
3 133 288 285 
3 124 133 285 
3 266 334 262 
3 260 123 255 
3 281 124 285 
3 265 331 275 
3 334 318 253 
3 260 209 294 
3 155 348 280 
3 336 301 227 
3 221 336 227 
3 100 301 336 
3 283 287 333 
3 130 329 272 
3 304 288 133 
3 133 115 304 
3 256 333 287 
3 338 333 256 
3 260 294 93 
3 288 304 216 
3 282 155 280 
3 158 155 282 
3 284 158 282 
3 275 130 272 
3 253 262 334 
3 331 130 275 
3 234 336 221 
3 340 336 234 
3 93 123 260 
3 284 349 159 
3 159 158 284 
3 311 334 266 
3 134 130 331 
3 308 311 266 
3 254 308 266 
3 159 315 136 
3 349 315 159 
3 227 301 206 
3 239 310 225 
3 318 334 311 
3 349 284 286 
3 311 316 318 
3 327 310 239 
3 138 310 327 
3 141 138 327 
3 257 349 286 
3 315 349 257 
3 240 340 234 
3 95 310 138 
3 92 330 148 
3 290 330 92 
3 323 316 109 
3 139 323 109 
3 335 323 139 
3 343 340 240 
3 345 343 240 
3 120 141 327 
3 295 330 290 
3 308 330 295 
3 339 323 335 
3 265 323 339 
3 344 343 345 
3 307 343 344 
3 91 335 139 
3 245 345 240 
3 344 345 245 
3 245 247 344 
3 302 335 91 
3 339 335 302 
3 132 346 156 
3 338 346 132 
3 331 265 339 
3 339 342 331 
3 156 264 157 
3 346 264 156 
3 331 342 143 
3 143 134 331 
3 346 338 256 
3 256 252 346 
3 342 339 302 
3 264 346 252 
3 302 328 342 
3 342 328 122 
3 122 143 342 
3 157 264 271 
3 135 157 271 
3 321 135 271 
3 269 321 271 
3 149 303 222 
3 329 149 222 
3 146 303 149 
3 214 321 269 
3 107 303 146 
3 149 329 130 
3 355 209 350 
3 214 429 206 
3 354 428 351 
3 207 430 205 
3 235 209 355 
3 357 431 352 
3 216 218 374 
3 365 222 359 
3 360 361 212 
3 212 210 360 
3 356 226 353 
3 233 226 356 
3 374 366 216 
3 210 219 371 
3 360 210 371 
3 226 238 362 
3 362 353 226 
3 223 228 378 
3 374 223 378 
3 238 364 362 
3 224 433 376 
3 218 223 374 
3 371 224 376 
3 219 224 371 
3 261 364 238 
3 376 433 380 
3 244 235 355 
3 358 244 355 
3 407 213 415 
3 232 433 224 
3 237 443 208 
3 382 228 241 
3 228 382 378 
3 352 220 407 
3 431 220 352 
3 270 432 368 
3 417 434 412 
3 433 435 386 
3 259 244 358 
3 364 270 368 
3 261 270 364 
3 225 220 431 
3 215 211 420 
3 412 215 420 
3 363 259 358 
3 213 407 220 
3 205 430 387 
3 368 432 372 
3 241 205 387 
3 415 231 369 
3 247 441 373 
3 237 247 373 
3 259 363 267 
3 382 241 387 
3 434 215 412 
3 380 433 386 
3 232 435 433 
3 213 231 415 
3 443 237 373 
3 373 383 443 
3 276 432 270 
3 217 434 417 
3 236 435 232 
3 212 361 369 
3 231 212 369 
3 359 217 417 
3 222 217 359 
3 230 443 258 
3 208 443 230 
3 267 363 370 
3 257 414 392 
3 436 267 370 
3 274 267 436 
3 386 435 391 
3 215 434 217 
3 239 431 357 
3 243 239 357 
3 404 438 396 
3 274 436 277 
3 389 443 383 
3 422 243 357 
3 258 443 389 
3 229 367 405 
3 372 278 390 
3 211 229 405 
3 438 428 354 
3 420 211 405 
3 354 396 438 
3 276 278 372 
3 432 276 372 
3 393 258 389 
3 242 435 236 
3 356 367 229 
3 379 436 370 
3 206 429 377 
3 273 258 393 
3 229 233 356 
3 227 206 377 
3 375 227 377 
3 246 249 409 
3 281 390 278 
3 277 436 379 
3 373 441 400 
3 251 257 392 
3 391 246 409 
3 411 273 393 
3 221 227 375 
3 279 277 379 
3 442 279 379 
3 242 246 391 
3 390 281 397 
3 401 251 392 
3 263 251 401 
3 250 422 425 
3 381 221 375 
3 263 437 268 
3 234 221 381 
3 384 442 379 
3 280 273 411 
3 285 288 403 
3 446 280 411 
3 397 285 403 
3 281 285 397 
3 268 437 408 
3 279 442 283 
3 435 242 391 
3 207 268 408 
3 406 207 408 
3 409 254 404 
3 422 250 243 
3 240 439 245 
3 403 216 366 
3 428 248 351 
3 249 254 409 
3 253 248 428 
3 381 439 240 
3 288 216 403 
3 255 250 425 
3 427 255 425 
3 413 446 411 
3 248 440 424 
3 424 351 248 
3 234 381 240 
3 260 255 427 
3 430 207 406 
3 280 446 282 
3 394 442 384 
3 283 442 394 
3 439 441 247 
3 416 446 413 
3 247 245 439 
3 209 260 427 
3 287 283 394 
3 437 263 401 
3 282 446 416 
3 419 282 416 
3 427 350 209 
3 410 388 252 
3 408 437 401 
3 284 282 419 
3 225 431 239 
3 248 265 440 
3 252 256 410 
3 440 444 426 
3 266 438 404 
3 426 424 440 
3 254 266 404 
3 421 284 419 
3 286 284 421 
3 423 286 421 
3 394 399 287 
3 262 438 266 
3 387 430 406 
3 385 252 388 
3 264 252 385 
3 286 414 257 
3 423 414 286 
3 428 438 262 
3 272 222 365 
3 262 253 428 
3 444 272 365 
3 271 445 269 
3 426 444 365 
3 410 287 399 
3 256 287 410 
3 275 440 265 
3 444 440 275 
3 272 444 275 
3 395 445 398 
3 429 445 395 
3 269 445 429 
3 214 269 429 
3 271 264 385 
3 402 271 385 
3 445 271 402 
3 398 445 402 
3 377 429 395 
3 439 381 418 
3 400 439 418 
3 441 439 400 
3 519 520 457 
3 457 447 519 
3 361 360 456 
3 456 462 361 
3 523 350 465 
3 465 478 523 
3 455 352 449 
3 357 352 455 
3 374 520 366 
3 522 520 374 
3 354 351 451 
3 483 523 478 
3 522 378 452 
3 350 523 355 
3 356 353 448 
3 450 356 448 
3 374 378 522 
3 453 354 451 
3 448 525 454 
3 353 525 448 
3 456 521 470 
3 457 522 464 
3 358 523 483 
3 520 522 457 
3 464 522 452 
3 351 458 451 
3 360 521 456 
3 378 382 471 
3 471 452 378 
3 525 353 362 
3 355 523 358 
3 459 369 469 
3 470 521 480 
3 383 373 472 
3 463 524 460 
3 496 358 483 
3 371 521 360 
3 362 364 461 
3 382 387 474 
3 369 361 462 
3 525 362 461 
3 454 525 461 
3 363 358 496 
3 471 382 474 
3 461 364 466 
3 496 499 363 
3 526 383 472 
3 477 526 472 
3 389 383 526 
3 392 528 401 
3 480 376 489 
3 469 369 462 
3 521 376 480 
3 389 526 393 
3 371 376 521 
3 370 363 499 
3 406 408 494 
3 467 524 463 
3 376 493 489 
3 504 528 507 
3 364 368 466 
3 365 524 467 
3 379 370 499 
3 380 493 376 
3 401 528 504 
3 359 524 365 
3 386 493 380 
3 499 508 379 
3 368 372 476 
3 408 401 504 
3 479 420 475 
3 476 466 368 
3 388 527 385 
3 473 449 407 
3 384 379 508 
3 398 487 395 
3 405 367 484 
3 482 400 486 
3 475 405 484 
3 504 494 408 
3 514 384 508 
3 420 405 475 
3 373 400 482 
3 391 409 500 
3 386 391 500 
3 484 356 450 
3 402 527 481 
3 468 402 481 
3 367 356 484 
3 510 414 512 
3 493 386 500 
3 392 414 510 
3 415 459 473 
3 407 415 473 
3 394 384 514 
3 530 394 514 
3 352 407 449 
3 528 392 510 
3 385 527 402 
3 460 412 479 
3 510 507 528 
3 524 412 460 
3 472 373 482 
3 417 412 524 
3 516 530 514 
3 387 406 494 
3 372 390 476 
3 412 420 479 
3 398 402 468 
3 409 404 503 
3 487 398 468 
3 503 500 409 
3 501 526 477 
3 531 526 501 
3 393 526 531 
3 411 393 531 
3 494 474 387 
3 530 399 394 
3 369 459 415 
3 491 410 495 
3 502 531 501 
3 388 410 491 
3 488 476 390 
3 411 531 413 
3 404 396 506 
3 503 404 506 
3 488 397 492 
3 485 422 455 
3 390 397 488 
3 527 388 491 
3 518 530 516 
3 498 527 491 
3 416 531 502 
3 509 416 502 
3 399 530 518 
3 422 357 455 
3 481 527 498 
3 417 524 359 
3 506 354 453 
3 425 422 485 
3 396 354 506 
3 495 399 518 
3 485 490 425 
3 397 519 492 
3 410 399 495 
3 497 529 490 
3 395 487 505 
3 413 531 416 
3 403 519 397 
3 465 529 497 
3 350 529 465 
3 419 416 509 
3 458 351 424 
3 520 519 403 
3 403 366 520 
3 515 419 509 
3 492 519 447 
3 529 425 490 
3 421 419 515 
3 517 421 515 
3 423 421 517 
3 427 425 529 
3 414 423 517 
3 517 512 414 
3 529 350 427 
3 377 395 505 
3 426 458 424 
3 467 458 426 
3 375 377 505 
3 365 467 426 
3 381 375 505 
3 511 381 505 
3 418 381 511 
3 511 513 418 
3 400 418 513 
3 513 486 400 
3 447 457 534 
3 534 532 447 
3 462 456 535 
3 535 537 462 
3 545 465 540 
3 478 465 545 
3 450 448 533 
3 533 538 450 
3 457 464 539 
3 539 534 457 
3 456 470 550 
3 552 610 542 
3 550 535 456 
3 448 454 544 
3 483 478 545 
3 539 452 541 
3 544 533 448 
3 549 483 545 
3 612 449 536 
3 480 556 550 
3 464 452 539 
3 470 480 550 
3 544 454 551 
3 489 556 480 
3 610 451 542 
3 543 471 547 
3 454 461 551 
3 452 471 543 
3 453 451 610 
3 489 493 573 
3 546 612 536 
3 556 489 573 
3 455 449 612 
3 461 466 562 
3 551 461 562 
3 555 483 549 
3 451 458 561 
3 561 542 451 
3 496 483 555 
3 560 496 555 
3 576 573 493 
3 547 611 548 
3 570 460 567 
3 471 611 547 
3 493 500 583 
3 613 496 560 
3 474 611 471 
3 463 460 570 
3 541 452 543 
3 558 563 459 
3 562 609 572 
3 466 609 562 
3 476 609 466 
3 565 613 560 
3 499 496 613 
3 504 507 553 
3 561 467 581 
3 458 467 561 
3 583 576 493 
3 581 463 570 
3 467 463 581 
3 558 469 569 
3 459 469 558 
3 559 504 553 
3 494 504 559 
3 500 503 586 
3 569 462 537 
3 609 488 575 
3 564 512 568 
3 479 475 594 
3 572 609 575 
3 476 488 609 
3 510 512 564 
3 586 583 500 
3 614 479 594 
3 488 492 578 
3 575 488 578 
3 571 510 564 
3 507 510 571 
3 578 492 582 
3 591 610 552 
3 469 462 569 
3 492 447 532 
3 582 492 532 
3 506 591 586 
3 536 473 563 
3 449 473 536 
3 503 506 586 
3 585 614 594 
3 571 553 507 
3 610 591 506 
3 574 613 565 
3 508 613 574 
3 594 484 598 
3 499 613 508 
3 506 453 610 
3 475 484 594 
3 473 459 563 
3 611 494 559 
3 484 450 538 
3 538 598 484 
3 548 611 559 
3 481 595 468 
3 474 494 611 
3 514 508 574 
3 567 614 585 
3 460 614 567 
3 479 614 460 
3 468 595 592 
3 487 468 592 
3 590 490 587 
3 599 495 600 
3 491 495 599 
3 597 612 546 
3 579 514 574 
3 485 612 597 
3 603 491 599 
3 516 514 579 
3 482 616 557 
3 554 482 557 
3 589 516 579 
3 455 612 485 
3 498 491 603 
3 486 616 482 
3 481 498 603 
3 518 516 589 
3 587 485 597 
3 589 596 518 
3 595 481 603 
3 495 518 596 
3 596 600 495 
3 490 485 587 
3 566 482 554 
3 472 482 566 
3 505 487 606 
3 557 616 577 
3 601 490 590 
3 606 605 505 
3 497 490 601 
3 477 472 566 
3 580 477 566 
3 511 505 605 
3 465 497 601 
3 601 540 465 
3 605 607 511 
3 501 477 580 
3 580 584 501 
3 606 487 592 
3 615 511 607 
3 608 615 607 
3 513 511 615 
3 513 616 486 
3 615 616 513 
3 577 615 608 
3 616 615 577 
3 502 501 584 
3 584 588 502 
3 617 502 588 
3 593 617 588 
3 509 502 617 
3 602 617 593 
3 515 617 602 
3 509 617 515 
3 517 515 602 
3 602 604 517 
3 512 517 604 
3 604 568 512 
3 532 534 620 
3 620 619 532 
3 537 535 623 
3 623 633 537 
3 552 542 618 
3 646 540 636 
3 545 540 646 
3 652 545 646 
3 535 550 638 
3 618 621 552 
3 638 623 535 
3 626 629 536 
3 534 539 622 
3 549 545 652 
3 538 533 624 
3 550 556 640 
3 622 620 534 
3 640 638 550 
3 539 541 625 
3 624 628 538 
3 555 549 652 
3 652 658 555 
3 533 544 632 
3 560 555 658 
3 625 622 539 
3 632 624 533 
3 674 560 658 
3 543 547 631 
3 640 573 649 
3 637 639 546 
3 556 573 640 
3 637 536 629 
3 547 548 634 
3 565 560 674 
3 573 576 657 
3 632 551 635 
3 544 551 632 
3 634 631 547 
3 657 649 573 
3 546 536 637 
3 625 543 631 
3 541 543 625 
3 563 558 644 
3 670 701 664 
3 674 679 565 
3 576 583 672 
3 551 562 642 
3 642 635 551 
3 672 657 576 
3 644 647 563 
3 642 562 648 
3 542 561 627 
3 627 618 542 
3 583 701 670 
3 562 572 661 
3 661 648 562 
3 672 583 670 
3 574 565 679 
3 679 685 574 
3 651 553 643 
3 641 567 630 
3 676 661 572 
3 559 553 651 
3 570 567 641 
3 554 557 655 
3 644 569 653 
3 564 568 662 
3 689 574 685 
3 676 575 683 
3 572 575 676 
3 586 701 583 
3 575 578 683 
3 662 659 564 
3 558 569 644 
3 627 581 645 
3 678 554 655 
3 566 554 678 
3 653 537 633 
3 578 582 691 
3 691 683 578 
3 557 577 682 
3 682 655 557 
3 691 532 619 
3 582 532 691 
3 666 564 659 
3 701 591 681 
3 579 574 689 
3 689 694 579 
3 571 564 666 
3 569 537 653 
3 553 571 666 
3 666 643 553 
3 561 581 627 
3 664 701 681 
3 580 566 678 
3 592 595 663 
3 698 579 694 
3 589 579 698 
3 645 570 641 
3 681 552 621 
3 581 570 645 
3 596 589 698 
3 698 700 596 
3 626 563 647 
3 536 563 626 
3 678 684 580 
3 591 552 681 
3 600 596 700 
3 700 673 600 
3 584 580 684 
3 684 686 584 
3 671 559 677 
3 588 584 686 
3 686 688 588 
3 548 559 671 
3 663 654 592 
3 650 656 585 
3 591 701 586 
3 693 588 688 
3 593 588 693 
3 634 548 671 
3 650 594 660 
3 599 600 673 
3 673 669 599 
3 696 593 693 
3 585 594 650 
3 668 587 665 
3 680 599 669 
3 590 587 668 
3 602 593 696 
3 696 697 602 
3 603 599 680 
3 660 598 667 
3 604 602 697 
3 594 598 660 
3 697 699 604 
3 651 677 559 
3 597 546 639 
3 568 604 699 
3 663 603 680 
3 699 662 568 
3 595 603 663 
3 598 538 628 
3 639 665 597 
3 628 667 598 
3 605 606 690 
3 567 585 656 
3 690 687 605 
3 656 630 567 
3 587 597 665 
3 692 605 687 
3 607 605 692 
3 601 590 668 
3 606 592 654 
3 654 690 606 
3 668 675 601 
3 695 607 692 
3 608 607 695 
3 540 601 675 
3 675 636 540 
3 577 608 695 
3 695 682 577 
3 710 620 712 
3 619 620 710 
3 633 623 702 
3 702 704 633 
3 620 622 724 
3 629 626 705 
3 646 636 727 
3 715 624 711 
3 724 712 620 
3 702 638 706 
3 623 638 702 
3 621 618 703 
3 703 707 621 
3 628 624 715 
3 706 640 709 
3 639 637 714 
3 711 632 718 
3 624 632 711 
3 632 635 719 
3 719 718 632 
3 622 625 738 
3 738 724 622 
3 638 640 706 
3 745 741 631 
3 727 731 646 
3 637 629 705 
3 708 703 618 
3 745 634 747 
3 652 646 731 
3 719 642 737 
3 635 642 719 
3 731 736 652 
3 642 648 743 
3 743 737 642 
3 708 627 713 
3 744 652 736 
3 743 661 748 
3 640 649 716 
3 618 627 708 
3 716 709 640 
3 705 714 637 
3 631 634 745 
3 658 652 744 
3 648 661 743 
3 641 630 717 
3 751 655 753 
3 716 657 721 
3 649 657 716 
3 726 644 722 
3 625 631 741 
3 717 720 641 
3 661 676 748 
3 741 738 625 
3 627 645 723 
3 723 713 627 
3 647 644 726 
3 723 641 720 
3 678 655 751 
3 676 683 757 
3 757 748 676 
3 664 781 670 
3 744 749 658 
3 721 672 725 
3 644 653 730 
3 657 672 721 
3 757 683 759 
3 645 641 723 
3 730 722 644 
3 651 643 754 
3 653 633 704 
3 751 758 678 
3 754 761 651 
3 753 682 765 
3 655 682 753 
3 725 781 728 
3 770 678 758 
3 684 678 770 
3 659 662 767 
3 704 730 653 
3 773 684 770 
3 686 684 773 
3 674 658 749 
3 759 691 762 
3 775 686 773 
3 767 763 659 
3 732 663 735 
3 654 663 732 
3 749 756 674 
3 688 686 775 
3 666 659 763 
3 763 769 666 
3 670 781 725 
3 626 647 726 
3 672 670 725 
3 754 666 769 
3 726 705 626 
3 643 666 754 
3 669 673 752 
3 683 691 759 
3 752 750 669 
3 693 688 775 
3 691 619 710 
3 775 777 693 
3 781 681 733 
3 680 669 750 
3 664 681 781 
3 710 762 691 
3 750 760 680 
3 696 693 777 
3 681 621 707 
3 663 680 760 
3 779 696 777 
3 697 696 779 
3 707 733 681 
3 699 697 779 
3 760 735 663 
3 779 780 699 
3 679 674 756 
3 671 677 761 
3 656 650 729 
3 764 679 756 
3 685 679 764 
3 728 781 733 
3 650 660 734 
3 734 729 650 
3 689 685 764 
3 662 699 780 
3 660 667 740 
3 761 747 671 
3 740 734 660 
3 772 689 764 
3 694 689 772 
3 634 671 747 
3 667 628 715 
3 668 665 739 
3 780 767 662 
3 739 742 668 
3 677 651 761 
3 715 740 667 
3 698 694 772 
3 687 690 768 
3 772 776 698 
3 717 656 729 
3 768 766 687 
3 746 639 714 
3 665 639 746 
3 700 698 776 
3 776 778 700 
3 692 687 766 
3 766 771 692 
3 630 656 717 
3 752 700 778 
3 673 700 752 
3 746 739 665 
3 690 654 732 
3 732 768 690 
3 755 668 742 
3 675 668 755 
3 695 692 771 
3 771 774 695 
3 636 675 755 
3 755 727 636 
3 765 695 774 
3 682 695 765 
3 710 712 785 
3 785 782 710 
3 788 702 783 
3 704 702 788 
3 731 727 787 
3 703 853 707 
3 791 711 784 
3 715 711 791 
3 783 706 794 
3 787 789 731 
3 702 706 783 
3 784 718 796 
3 711 718 784 
3 792 731 789 
3 718 719 796 
3 703 708 795 
3 706 709 798 
3 794 706 798 
3 736 731 792 
3 853 703 795 
3 785 724 801 
3 712 724 785 
3 810 853 795 
3 798 709 802 
3 802 716 805 
3 709 716 802 
3 736 792 744 
3 804 796 719 
3 744 792 797 
3 749 744 797 
3 716 721 805 
3 737 809 804 
3 721 725 813 
3 813 805 721 
3 719 737 804 
3 808 856 811 
3 753 856 808 
3 705 790 793 
3 725 728 816 
3 743 809 737 
3 751 753 808 
3 852 749 797 
3 800 852 797 
3 756 749 852 
3 807 735 814 
3 801 724 786 
3 816 813 725 
3 758 751 808 
3 743 818 809 
3 748 818 743 
3 714 705 793 
3 732 735 807 
3 820 732 807 
3 738 786 724 
3 750 752 828 
3 795 713 815 
3 828 825 750 
3 760 750 825 
3 825 832 760 
3 853 733 707 
3 708 713 795 
3 726 722 799 
3 814 760 832 
3 735 760 814 
3 741 745 803 
3 806 852 800 
3 722 730 823 
3 816 733 824 
3 823 799 722 
3 764 852 806 
3 728 733 816 
3 837 768 820 
3 818 757 833 
3 748 757 818 
3 766 768 837 
3 824 853 810 
3 730 704 788 
3 733 853 824 
3 759 839 833 
3 757 759 833 
3 756 852 764 
3 771 766 837 
3 837 842 771 
3 786 741 803 
3 762 839 759 
3 720 717 821 
3 713 723 830 
3 839 710 782 
3 762 710 839 
3 768 732 820 
3 830 815 713 
3 788 823 730 
3 723 720 821 
3 774 771 842 
3 846 774 842 
3 803 854 812 
3 821 830 723 
3 764 806 819 
3 745 854 803 
3 856 774 846 
3 772 764 819 
3 846 811 856 
3 747 854 745 
3 705 726 834 
3 790 705 834 
3 741 786 738 
3 819 822 772 
3 774 856 765 
3 855 734 836 
3 838 855 836 
3 729 734 855 
3 834 726 799 
3 776 772 822 
3 734 740 841 
3 841 836 734 
3 835 754 840 
3 829 776 822 
3 778 776 829 
3 740 715 791 
3 791 841 740 
3 739 847 742 
3 761 754 835 
3 828 778 829 
3 752 778 828 
3 826 761 835 
3 821 855 838 
3 717 855 821 
3 729 855 717 
3 746 793 843 
3 714 793 746 
3 763 767 848 
3 848 845 763 
3 769 763 845 
3 845 840 769 
3 754 769 840 
3 739 746 843 
3 847 739 843 
3 849 755 847 
3 742 847 755 
3 854 826 812 
3 761 826 854 
3 747 761 854 
3 727 755 849 
3 849 787 727 
3 808 817 758 
3 765 856 753 
3 827 758 817 
3 770 758 827 
3 831 770 827 
3 773 770 831 
3 775 773 831 
3 857 775 831 
3 844 857 831 
3 777 775 857 
3 850 857 844 
3 779 857 850 
3 777 857 779 
3 851 779 850 
3 780 779 851 
3 767 780 851 
3 851 848 767 
3 785 939 782 
3 859 939 785 
3 863 783 861 
3 788 783 863 
3 859 941 862 
3 876 795 869 
3 864 784 860 
3 791 784 864 
3 793 790 867 
3 794 870 865 
3 783 794 865 
3 787 944 789 
3 861 783 865 
3 784 940 860 
3 810 795 876 
3 796 940 784 
3 798 870 794 
3 941 786 873 
3 862 941 873 
3 867 880 793 
3 798 802 872 
3 858 944 787 
3 870 798 872 
3 860 940 877 
3 941 859 785 
3 789 944 792 
3 872 942 875 
3 785 801 941 
3 802 942 872 
3 805 942 802 
3 898 799 823 
3 875 942 879 
3 877 804 881 
3 940 804 877 
3 796 804 940 
3 795 938 869 
3 823 788 863 
3 944 858 866 
3 786 941 801 
3 804 809 881 
3 889 949 892 
3 813 900 886 
3 942 813 886 
3 895 951 901 
3 908 881 809 
3 879 942 886 
3 868 944 866 
3 805 813 942 
3 792 944 868 
3 873 803 883 
3 809 818 914 
3 786 803 873 
3 816 900 813 
3 914 908 809 
3 906 949 889 
3 814 949 906 
3 807 814 906 
3 898 823 863 
3 897 900 816 
3 797 792 868 
3 868 871 797 
3 951 807 906 
3 901 951 906 
3 800 797 871 
3 919 914 818 
3 816 824 894 
3 820 807 951 
3 884 800 871 
3 825 828 913 
3 913 892 825 
3 818 833 919 
3 897 816 894 
3 815 938 795 
3 833 839 926 
3 926 919 833 
3 887 800 884 
3 824 810 876 
3 876 894 824 
3 891 883 812 
3 949 825 892 
3 832 825 949 
3 806 800 887 
3 803 812 883 
3 926 939 930 
3 839 939 926 
3 830 938 815 
3 945 938 830 
3 887 890 806 
3 939 859 930 
3 819 806 890 
3 790 834 904 
3 896 943 893 
3 782 939 839 
3 832 949 814 
3 945 943 896 
3 834 799 909 
3 899 819 890 
3 950 819 899 
3 822 819 950 
3 904 834 909 
3 830 943 945 
3 821 943 830 
3 878 951 895 
3 837 951 878 
3 874 837 878 
3 820 951 837 
3 902 946 907 
3 905 950 899 
3 836 947 838 
3 867 790 904 
3 837 874 885 
3 842 837 885 
3 918 842 885 
3 915 841 910 
3 947 841 915 
3 836 841 947 
3 912 826 916 
3 799 898 909 
3 922 842 918 
3 846 842 922 
3 950 905 829 
3 829 822 950 
3 917 846 922 
3 811 846 917 
3 841 791 864 
3 864 910 841 
3 913 829 905 
3 828 829 913 
3 835 946 902 
3 916 835 902 
3 840 946 835 
3 843 793 921 
3 821 838 920 
3 943 821 920 
3 923 943 920 
3 826 835 916 
3 880 921 793 
3 845 848 928 
3 928 907 845 
3 927 843 921 
3 847 843 927 
3 920 947 925 
3 838 947 920 
3 847 948 849 
3 893 943 923 
3 946 845 907 
3 840 845 946 
3 948 858 787 
3 787 849 948 
3 925 947 915 
3 869 938 932 
3 948 847 927 
3 931 948 927 
3 812 826 912 
3 912 891 812 
3 858 948 931 
3 932 945 934 
3 938 945 932 
3 934 945 896 
3 817 882 888 
3 952 817 888 
3 888 903 952 
3 911 952 903 
3 808 811 917 
3 882 808 917 
3 882 817 808 
3 817 952 827 
3 953 952 911 
3 924 953 911 
3 827 952 953 
3 831 827 953 
3 929 953 924 
3 933 953 929 
3 844 953 933 
3 831 953 844 
3 935 844 933 
3 844 935 850 
3 850 935 936 
3 851 850 936 
3 937 851 936 
3 848 851 937 
3 937 928 848 
3 866 858 954 
3 954 957 866 
3 963 1032 974 
3 867 1031 880 
3 981 862 987 
3 859 862 981 
3 869 1033 876 
3 863 861 956 
3 956 959 863 
3 865 870 964 
3 956 865 964 
3 861 865 956 
3 960 866 957 
3 873 1002 990 
3 872 1034 969 
3 862 873 990 
3 868 866 960 
3 987 862 990 
3 870 872 969 
3 964 870 969 
3 893 978 896 
3 875 1034 872 
3 1002 883 1009 
3 969 1034 977 
3 864 860 966 
3 966 970 864 
3 883 1002 873 
3 966 877 975 
3 1034 980 977 
3 875 980 1034 
3 879 980 875 
3 960 871 868 
3 891 1032 963 
3 1009 891 963 
3 860 877 966 
3 886 980 879 
3 965 985 1036 
3 883 891 1009 
3 894 1039 897 
3 877 1037 975 
3 871 960 968 
3 876 1039 894 
3 1033 1039 876 
3 904 909 961 
3 882 1040 989 
3 920 1041 923 
3 965 882 989 
3 882 1036 888 
3 900 997 992 
3 867 904 993 
3 965 1036 882 
3 1031 867 993 
3 886 900 992 
3 962 925 958 
3 1043 1036 985 
3 985 998 1043 
3 907 928 1019 
3 980 886 992 
3 884 871 968 
3 996 1031 993 
3 1035 884 968 
3 920 925 962 
3 878 955 973 
3 967 878 973 
3 993 904 961 
3 881 1037 877 
3 971 1035 968 
3 1041 920 962 
3 1003 1043 998 
3 874 878 967 
3 979 1035 971 
3 1036 1043 903 
3 1019 1015 907 
3 897 997 900 
3 909 898 1005 
3 976 918 885 
3 967 976 885 
3 1000 997 897 
3 923 1041 972 
3 874 967 885 
3 884 1035 887 
3 978 923 972 
3 1005 961 909 
3 902 907 1015 
3 1022 902 1015 
3 893 923 978 
3 975 1037 984 
3 1027 1044 1022 
3 887 1035 979 
3 982 887 979 
3 972 1041 962 
3 1005 863 959 
3 898 863 1005 
3 916 1044 1027 
3 912 916 1027 
3 908 1042 988 
3 1037 908 988 
3 1047 918 976 
3 890 887 982 
3 1038 890 982 
3 986 1038 982 
3 915 910 1011 
3 958 915 1011 
3 983 1047 976 
3 984 1037 988 
3 880 1031 1014 
3 1016 880 1014 
3 921 880 1016 
3 989 1047 983 
3 1040 1047 989 
3 1032 912 1027 
3 897 1039 1004 
3 974 1032 1027 
3 881 908 1037 
3 995 913 1001 
3 899 1038 986 
3 892 913 995 
3 921 1021 927 
3 1000 897 1004 
3 914 1042 908 
3 1007 892 995 
3 889 892 1007 
3 890 1038 899 
3 1004 1033 1012 
3 1010 1048 1013 
3 1039 1033 1004 
3 991 899 986 
3 905 899 991 
3 925 915 958 
3 988 1042 994 
3 1044 902 1022 
3 903 888 1036 
3 916 902 1044 
3 901 1048 1010 
3 895 901 1010 
3 913 905 991 
3 1001 913 991 
3 1011 864 970 
3 914 919 999 
3 1042 914 999 
3 955 895 1010 
3 994 1042 999 
3 911 1043 1003 
3 1008 911 1003 
3 910 864 1011 
3 1013 889 1007 
3 906 889 1013 
3 1048 906 1013 
3 903 1043 911 
3 1012 869 1017 
3 912 1032 891 
3 1033 869 1012 
3 1021 921 1016 
3 906 1048 901 
3 919 1006 999 
3 917 1040 882 
3 911 1008 924 
3 869 1045 1017 
3 1006 919 926 
3 1026 927 1021 
3 931 927 1026 
3 932 1045 869 
3 924 1008 1020 
3 895 955 878 
3 929 924 1020 
3 1017 1045 1024 
3 858 931 1026 
3 1006 930 1018 
3 926 930 1006 
3 1026 954 858 
3 1046 1045 932 
3 932 934 1046 
3 918 1047 922 
3 929 1020 933 
3 1014 1031 996 
3 930 859 981 
3 981 1018 930 
3 922 1040 917 
3 1047 1040 922 
3 1029 896 978 
3 934 896 1029 
3 1046 934 1029 
3 933 1020 1023 
3 1025 933 1023 
3 935 933 1025 
3 1045 1046 1030 
3 1030 1024 1045 
3 1030 1046 1029 
3 936 935 1025 
3 1028 936 1025 
3 937 936 1028 
3 928 937 1028 
3 1028 1019 928 
3 957 954 1122 
3 1120 1123 1079 
3 1079 1055 1120 
3 957 1122 1049 
3 1049 1056 957 
3 1126 1121 959 
3 959 956 1126 
3 1138 1132 970 
3 1050 1124 1051 
3 970 966 1138 
3 964 1126 956 
3 958 1137 962 
3 1130 1129 1054 
3 1120 1127 1091 
3 1091 1123 1120 
3 972 1150 978 
3 1121 1126 1059 
3 1051 1130 1054 
3 1124 1130 1051 
3 1053 1141 1071 
3 975 1138 966 
3 1058 1135 1084 
3 1059 1063 1121 
3 1134 1146 1095 
3 1130 1131 1133 
3 962 1137 1068 
3 1126 964 1067 
3 1067 1059 1126 
3 1124 1128 1131 
3 1075 1145 1082 
3 1124 1131 1130 
3 1100 1134 1095 
3 1127 1134 1100 
3 1132 1138 1052 
3 1050 1128 1124 
3 1052 1057 1132 
3 1128 1140 1143 
3 1143 1131 1128 
3 1093 1139 1105 
3 1141 1145 1075 
3 960 957 1056 
3 993 1125 996 
3 1064 1140 1060 
3 1071 1141 1075 
3 955 1145 1141 
3 1138 975 1061 
3 1135 1139 1093 
3 1146 1152 1114 
3 1062 960 1056 
3 1079 1157 1087 
3 1061 1052 1138 
3 1123 1157 1079 
3 969 1136 1070 
3 1076 962 1068 
3 1067 969 1070 
3 1114 1095 1146 
3 1143 1140 1064 
3 1123 1091 1166 
3 1166 1157 1123 
3 1125 961 1065 
3 964 969 1067 
3 1131 1143 1148 
3 1148 1133 1131 
3 1084 1135 1093 
3 1091 1127 1100 
3 1062 1144 968 
3 968 960 1062 
3 977 1136 969 
3 1066 1143 1064 
3 980 1136 977 
3 1087 1169 1053 
3 1157 1169 1087 
3 1148 1143 1066 
3 968 1144 971 
3 972 962 1076 
3 1150 972 1076 
3 963 1139 1135 
3 974 1139 963 
3 993 961 1125 
3 1070 1136 1081 
3 1157 1166 1172 
3 1172 1169 1157 
3 1011 1137 958 
3 1153 1130 965 
3 984 1163 1061 
3 975 984 1061 
3 1147 987 1113 
3 1113 1110 1147 
3 1091 1098 1166 
3 1062 1074 1144 
3 1129 1130 1153 
3 987 1147 981 
3 1081 1142 1085 
3 1155 1137 1011 
3 1175 1166 1098 
3 1151 1144 1074 
3 1130 1133 985 
3 1154 961 1005 
3 1136 1142 1081 
3 980 1142 1136 
3 1172 1166 1175 
3 959 1154 1005 
3 1083 1151 1074 
3 971 1144 1151 
3 979 971 1151 
3 1054 1175 1098 
3 1092 1151 1083 
3 990 1002 1058 
3 1129 1175 1054 
3 985 965 1130 
3 1121 1154 959 
3 988 1163 984 
3 989 1153 965 
3 1085 1142 1090 
3 970 1155 1011 
3 979 1151 982 
3 961 1154 1072 
3 1133 1148 998 
3 973 1169 967 
3 1141 1169 973 
3 1132 1155 970 
3 1061 1163 1073 
3 1113 990 1058 
3 998 985 1133 
3 1053 1169 1141 
3 992 1142 980 
3 987 990 1113 
3 982 1151 1092 
3 1137 1155 1088 
3 967 1172 976 
3 1169 1172 967 
3 1072 1065 961 
3 986 982 1092 
3 1142 1149 1090 
3 992 1149 1142 
3 997 1149 992 
3 1135 1058 1002 
3 1002 1009 1135 
3 1073 1170 1077 
3 1088 1068 1137 
3 1134 1149 997 
3 963 1135 1009 
3 997 1000 1134 
3 1155 1132 1057 
3 1057 1088 1155 
3 1116 1158 1115 
3 1162 1158 1116 
3 994 1170 1073 
3 1004 1156 1000 
3 1154 1121 1063 
3 1063 1072 1154 
3 1012 1156 1004 
3 998 1148 1066 
3 1017 1161 1012 
3 955 1141 973 
3 1164 986 1092 
3 1092 1097 1164 
3 1161 1156 1012 
3 1022 1162 1116 
3 1167 1164 1097 
3 1116 1105 1022 
3 1172 1178 976 
3 988 994 1073 
3 1163 988 1073 
3 1019 1162 1015 
3 1156 1134 1000 
3 1175 1178 1172 
3 1158 1162 1019 
3 1146 1134 1156 
3 1014 1160 1016 
3 1175 1129 1153 
3 1153 1178 1175 
3 1156 1161 1152 
3 1097 1102 1167 
3 1069 998 1066 
3 1003 998 1069 
3 1159 1003 1069 
3 1160 1080 1021 
3 1152 1146 1156 
3 976 1178 983 
3 986 1164 991 
3 1161 1017 1171 
3 1086 1077 1170 
3 1162 1022 1015 
3 1003 1159 1008 
3 1149 1120 1055 
3 1171 1152 1161 
3 999 1170 994 
3 1078 1159 1069 
3 1164 1167 1001 
3 1021 1016 1160 
3 1055 1090 1149 
3 1001 991 1164 
3 1006 1170 999 
3 1024 1171 1017 
3 1120 1134 1127 
3 1086 1170 1006 
3 1149 1134 1120 
3 1178 1153 989 
3 1174 1171 1024 
3 989 983 1178 
3 1027 1022 1105 
3 1139 1027 1105 
3 1089 1159 1078 
3 1165 1159 1089 
3 1006 1018 1106 
3 1180 1167 1102 
3 1102 1109 1180 
3 1086 1006 1106 
3 978 1176 1029 
3 1007 1180 1109 
3 1008 1159 1165 
3 1099 1021 1080 
3 1109 1112 1007 
3 1026 1021 1099 
3 1167 1180 995 
3 995 1001 1167 
3 1026 1122 954 
3 1180 1007 995 
3 1027 1139 974 
3 1122 1026 1099 
3 1099 1049 1122 
3 1106 1147 1110 
3 1018 1147 1106 
3 1094 1165 1089 
3 1030 1174 1024 
3 1177 1174 1030 
3 1147 1018 981 
3 1082 1007 1112 
3 1013 1007 1082 
3 1145 1013 1082 
3 1010 1013 1145 
3 1111 1125 1103 
3 1160 1125 1111 
3 996 1125 1160 
3 1014 996 1160 
3 1010 1145 955 
3 1103 1125 1065 
3 1008 1165 1020 
3 1029 1176 1096 
3 1030 1029 1096 
3 1177 1030 1096 
3 1101 1177 1096 
3 1080 1160 1111 
3 1023 1165 1094 
3 1168 1023 1094 
3 1104 1168 1094 
3 1171 1179 1107 
3 1114 1171 1107 
3 1020 1165 1023 
3 1152 1171 1114 
3 1023 1168 1025 
3 1108 1168 1104 
3 1173 1168 1108 
3 1171 1174 1181 
3 1181 1179 1171 
3 1158 1173 1108 
3 1108 1115 1158 
3 1050 1107 1179 
3 1168 1173 1028 
3 1028 1025 1168 
3 1173 1158 1019 
3 1019 1028 1173 
3 1179 1181 1128 
3 1128 1050 1179 
3 1181 1177 1182 
3 1174 1177 1181 
3 1117 1177 1101 
3 1182 1177 1117 
3 1128 1182 1140 
3 1181 1182 1128 
3 1140 1182 1117 
3 1117 1060 1140 
3 1176 1150 1118 
3 1119 1176 1118 
3 978 1150 1176 
3 1118 1150 1076 
3 1096 1176 1119 
3 1054 1237 1051 
3 1079 1232 1055 
3 1189 1230 1185 
3 1231 1234 1056 
3 1183 1240 1195 
3 1235 1240 1183 
3 1056 1049 1231 
3 1060 1248 1064 
3 1243 1248 1060 
3 1231 1189 1184 
3 1099 1189 1231 
3 1052 1239 1057 
3 1068 1236 1076 
3 1051 1233 1050 
3 1056 1234 1062 
3 1235 1232 1079 
3 1237 1233 1051 
3 1198 1249 1113 
3 1066 1064 1248 
3 1053 1218 1206 
3 1240 1053 1206 
3 1195 1240 1206 
3 1231 1184 1194 
3 1194 1234 1231 
3 1191 1249 1198 
3 1242 1239 1052 
3 1059 1241 1063 
3 1248 1243 1193 
3 1193 1197 1248 
3 1061 1242 1052 
3 1223 1255 1226 
3 1198 1254 1207 
3 1268 1264 1221 
3 1244 1241 1059 
3 1221 1229 1268 
3 1201 1248 1197 
3 1067 1244 1059 
3 1066 1248 1201 
3 1247 1244 1067 
3 1190 1242 1187 
3 1226 1268 1229 
3 1239 1242 1190 
3 1112 1268 1226 
3 1070 1247 1067 
3 1238 1236 1068 
3 1255 1112 1226 
3 1068 1088 1238 
3 1241 1244 1202 
3 1234 1246 1062 
3 1194 1246 1234 
3 1242 1252 1187 
3 1061 1252 1242 
3 1194 1200 1246 
3 1202 1203 1241 
3 1239 1238 1088 
3 1088 1057 1239 
3 1074 1062 1246 
3 1254 1113 1058 
3 1247 1215 1211 
3 1272 1255 1223 
3 1218 1272 1223 
3 1204 1246 1200 
3 1244 1247 1211 
3 1187 1252 1205 
3 1202 1244 1211 
3 1071 1218 1053 
3 1272 1218 1071 
3 1073 1252 1061 
3 1261 1252 1073 
3 1065 1072 1250 
3 1251 1246 1204 
3 1074 1246 1251 
3 1198 1113 1254 
3 1082 1272 1075 
3 1241 1250 1072 
3 1077 1261 1073 
3 1083 1251 1092 
3 1069 1259 1078 
3 1074 1251 1083 
3 1215 1247 1070 
3 1255 1272 1082 
3 1112 1255 1082 
3 1100 1245 1091 
3 1233 1114 1107 
3 1253 1215 1070 
3 1081 1253 1070 
3 1075 1272 1071 
3 1107 1050 1233 
3 1085 1253 1081 
3 1208 1251 1204 
3 1217 1257 1222 
3 1087 1235 1079 
3 1072 1063 1241 
3 1253 1256 1219 
3 1262 1258 1227 
3 1240 1235 1087 
3 1227 1222 1262 
3 1101 1263 1117 
3 1205 1266 1212 
3 1066 1259 1069 
3 1252 1266 1205 
3 1215 1253 1219 
3 1201 1259 1066 
3 1095 1245 1100 
3 1251 1208 1260 
3 1260 1092 1251 
3 1053 1240 1087 
3 1090 1253 1085 
3 1261 1266 1252 
3 1256 1253 1090 
3 1098 1091 1245 
3 1266 1261 1077 
3 1257 1262 1222 
3 1105 1262 1257 
3 1245 1233 1237 
3 1237 1098 1245 
3 1077 1086 1266 
3 1221 1260 1208 
3 1264 1260 1221 
3 1263 1243 1060 
3 1219 1256 1225 
3 1060 1117 1263 
3 1098 1237 1054 
3 1118 1267 1119 
3 1216 1212 1266 
3 1225 1232 1228 
3 1092 1260 1097 
3 1264 1268 1109 
3 1095 1114 1233 
3 1099 1231 1049 
3 1214 1259 1201 
3 1090 1232 1225 
3 1256 1090 1225 
3 1254 1257 1217 
3 1097 1264 1102 
3 1233 1245 1095 
3 1260 1264 1097 
3 1109 1102 1264 
3 1207 1254 1217 
3 1232 1235 1183 
3 1183 1228 1232 
3 1112 1109 1268 
3 1076 1267 1118 
3 1270 1266 1086 
3 1078 1259 1089 
3 1216 1266 1270 
3 1084 1257 1254 
3 1214 1269 1094 
3 1236 1267 1076 
3 1232 1090 1055 
3 1259 1214 1094 
3 1089 1259 1094 
3 1084 1254 1058 
3 1216 1270 1249 
3 1065 1265 1103 
3 1186 1267 1236 
3 1249 1191 1216 
3 1257 1084 1093 
3 1105 1257 1093 
3 1111 1230 1080 
3 1103 1230 1111 
3 1106 1270 1086 
3 1269 1214 1220 
3 1271 1269 1220 
3 1224 1271 1220 
3 1188 1101 1096 
3 1267 1188 1096 
3 1119 1267 1096 
3 1230 1265 1199 
3 1185 1230 1199 
3 1249 1270 1106 
3 1106 1110 1249 
3 1227 1271 1224 
3 1258 1271 1227 
3 1113 1249 1110 
3 1188 1267 1186 
3 1103 1265 1230 
3 1094 1269 1104 
3 1265 1250 1209 
3 1065 1250 1265 
3 1104 1271 1108 
3 1269 1271 1104 
3 1196 1238 1192 
3 1236 1238 1196 
3 1186 1236 1196 
3 1258 1262 1116 
3 1271 1258 1115 
3 1116 1115 1258 
3 1115 1108 1271 
3 1250 1241 1203 
3 1209 1250 1203 
3 1238 1239 1190 
3 1105 1116 1262 
3 1190 1192 1238 
3 1209 1199 1265 
3 1101 1188 1210 
3 1263 1101 1210 
3 1213 1263 1210 
3 1230 1099 1080 
3 1189 1099 1230 
3 1193 1263 1213 
3 1243 1263 1193 
3 1185 1279 1189 
3 1296 1299 1302 
3 1285 1299 1296 
3 1273 1277 1280 
3 1280 1275 1273 
3 1283 1286 1290 
3 1274 1278 1194 
3 1194 1184 1274 
3 1281 1286 1283 
3 1198 1305 1191 
3 1280 1282 1297 
3 1200 1194 1278 
3 1294 1283 1300 
3 1277 1282 1280 
3 1279 1274 1184 
3 1299 1305 1198 
3 1184 1189 1279 
3 1186 1287 1188 
3 1274 1289 1292 
3 1207 1299 1198 
3 1279 1284 1288 
3 1302 1299 1207 
3 1292 1278 1274 
3 1185 1284 1279 
3 1275 1280 1307 
3 1289 1273 1275 
3 1288 1291 1293 
3 1307 1301 1275 
3 1284 1291 1288 
3 1274 1288 1289 
3 1197 1193 1276 
3 1300 1295 1294 
3 1307 1297 1310 
3 1280 1297 1307 
3 1279 1288 1274 
3 1276 1295 1318 
3 1300 1290 1304 
3 1283 1290 1300 
3 1275 1292 1289 
3 1318 1197 1276 
3 1284 1185 1199 
3 1278 1292 1298 
3 1298 1200 1278 
3 1288 1293 1273 
3 1282 1312 1195 
3 1195 1297 1282 
3 1308 1296 1222 
3 1292 1275 1301 
3 1273 1289 1288 
3 1195 1312 1183 
3 1301 1298 1292 
3 1222 1227 1308 
3 1199 1209 1284 
3 1297 1195 1206 
3 1204 1298 1208 
3 1200 1298 1204 
3 1190 1187 1313 
3 1281 1287 1186 
3 1318 1319 1201 
3 1197 1318 1201 
3 1313 1286 1190 
3 1203 1284 1209 
3 1295 1300 1320 
3 1320 1318 1295 
3 1203 1202 1303 
3 1303 1291 1203 
3 1310 1297 1206 
3 1218 1310 1206 
3 1300 1304 1321 
3 1321 1320 1300 
3 1298 1221 1208 
3 1296 1302 1217 
3 1303 1202 1211 
3 1222 1296 1217 
3 1301 1221 1298 
3 1318 1320 1322 
3 1322 1319 1318 
3 1306 1303 1211 
3 1215 1306 1211 
3 1301 1307 1229 
3 1229 1221 1301 
3 1291 1284 1203 
3 1320 1321 1308 
3 1308 1322 1320 
3 1196 1281 1186 
3 1219 1306 1215 
3 1201 1319 1214 
3 1192 1281 1196 
3 1205 1313 1187 
3 1291 1303 1309 
3 1309 1293 1291 
3 1314 1313 1205 
3 1322 1224 1220 
3 1281 1190 1286 
3 1303 1306 1311 
3 1192 1190 1281 
3 1311 1309 1303 
3 1307 1310 1223 
3 1212 1314 1205 
3 1293 1309 1277 
3 1277 1273 1293 
3 1226 1307 1223 
3 1229 1307 1226 
3 1309 1311 1282 
3 1294 1213 1210 
3 1282 1277 1309 
3 1286 1313 1315 
3 1315 1290 1286 
3 1319 1322 1220 
3 1214 1319 1220 
3 1287 1294 1210 
3 1311 1306 1219 
3 1225 1311 1219 
3 1188 1287 1210 
3 1322 1308 1227 
3 1228 1311 1225 
3 1313 1314 1316 
3 1316 1315 1313 
3 1223 1310 1218 
3 1213 1276 1193 
3 1290 1315 1317 
3 1317 1304 1290 
3 1227 1224 1322 
3 1217 1302 1207 
3 1311 1228 1312 
3 1312 1282 1311 
3 1276 1294 1295 
3 1228 1183 1312 
3 1213 1294 1276 
3 1315 1316 1305 
3 1305 1317 1315 
3 1294 1281 1283 
3 1287 1281 1294 
3 1316 1314 1212 
3 1212 1216 1316 
3 1305 1316 1216 
3 1216 1191 1305 
3 1321 1317 1285 
3 1304 1317 1321 
3 1285 1305 1299 
3 1317 1305 1285 
3 1308 1285 1296 
3 1321 1285 1308 
