# vtk DataFile Version 2.0
Shape of holes
ASCII
DATASET UNSTRUCTURED_GRID

POINTS 12 double
0 0.850651 0.420585
0 0.850651 -0.420585
0 -0.850651 0.420585
0 -0.85065 -0.420585
1.02078 0.525731 0
1.02078 -0.525731 0
-1.02078 0.525731 0
-1.02078 -0.525731 0
0.630877 0 0.680521
-0.630877 0 0.680521
0.630877 0 -0.680521
-0.630878 0 -0.680521

CELLS 107 383
1 0
1 1
1 2
1 3
1 4
1 5
1 6
1 7
1 8
1 9
1 10
1 11
2 1 0
2 1 6
2 0 6
2 6 9
2 0 9
2 3 2
2 3 7
2 2 7
2 0 4
2 1 4
2 8 5
2 8 3
2 8 10
2 5 3
2 5 10
2 3 10
2 8 0
2 8 9
2 1 9
2 2 5
2 9 3
2 9 7
2 9 11
2 3 11
2 7 11
2 7 6
2 6 11
2 10 1
2 10 11
2 1 11
2 2 9
2 2 8
2 1 8
2 4 8
2 4 10
2 8 11
2 4 5
3 1 6 0
3 6 9 0
3 3 2 7
3 0 4 1
3 5 10 3
3 8 3 10
3 8 10 5
3 8 5 3
3 8 0 9
3 1 9 0
3 6 9 1
3 3 5 2
3 3 11 7
3 9 7 11
3 9 11 3
3 9 3 7
3 6 11 9
3 7 11 6
3 7 6 9
3 10 11 1
3 10 3 11
3 2 7 9
3 2 9 3
3 2 5 8
3 4 10 8
3 1 8 10
3 1 10 4
3 1 4 8
3 1 11 6
3 8 11 10
3 3 11 8
3 8 1 9
3 8 0 1
3 8 2 9
3 8 9 3
3 8 3 2
3 4 5 10
3 8 4 5
3 0 8 4
3 9 1 11
3 9 11 8
3 8 11 1
4 8 5 3 10
4 6 1 0 9
4 9 3 7 11
4 7 6 9 11
4 2 3 7 9
4 1 4 8 10
4 3 8 10 11
4 8 0 1 9
4 8 3 2 9
4 8 4 5 10
4 4 0 1 8
4 9 6 1 11
4 5 3 2 8
4 9 8 3 11
4 8 1 10 11
4 1 8 9 11

CELL_TYPES 107
1
1
1
1
1
1
1
1
1
1
1
1
3
3
3
3
3
3
3
3
3
3
3
3
3
3
3
3
3
3
3
3
3
3
3
3
3
3
3
3
3
3
3
3
3
3
3
3
3
5
5
5
5
5
5
5
5
5
5
5
5
5
5
5
5
5
5
5
5
5
5
5
5
5
5
5
5
5
5
5
5
5
5
5
5
5
5
5
5
5
5
10
10
10
10
10
10
10
10
10
10
10
10
10
10
10
10

CELL_DATA 107
SCALARS CellId int 1
LOOKUP_TABLE default
0 1 2 3 4 5 6 7 8 9 10 11 0 1 2 3 4 5 6 7 8 9 10 11 12 13 14 15 16 17 18 19 20 21 22 23 24 25 26 27 28 29 30 31 32 33 34 35 36 0 1 2 3 4 5 6 7 8 9 10 11 12 13 14 15 16 17 18 19 20 21 22 23 24 25 26 27 28 29 30 31 32 33 34 35 36 37 38 39 40 41 0 1 2 3 4 5 6 7 8 9 10 11 12 13 14 15 
SCALARS Dimension int 1
LOOKUP_TABLE default
0 0 0 0 0 0 0 0 0 0 0 0 1 1 1 1 1 1 1 1 1 1 1 1 1 1 1 1 1 1 1 1 1 1 1 1 1 1 1 1 1 1 1 1 1 1 1 1 1 2 2 2 2 2 2 2 2 2 2 2 2 2 2 2 2 2 2 2 2 2 2 2 2 2 2 2 2 2 2 2 2 2 2 2 2 2 2 2 2 2 2 3 3 3 3 3 3 3 3 3 3 3 3 3 3 3 3 
SCALARS Flags int 1
LOOKUP_TABLE default
0 0 0 0 0 0 0 0 0 0 0 0 
0 0 0 0 0 0 0 0 0 0 0 2 2 0 0 0 0 0 2 0 2 0 2 0 0 0 0 0 0 0 0 0 2 0 0 2 0 
0 0 0 0 0 2 2 2 0 2 2 0 0 2 2 2 2 0 0 0 0 0 2 0 2 2 0 2 0 0 2 2 2 0 2 2 0 0 0 2 2 2 
2 2 2 2 2 2 2 2 2 2 2 2 2 0 2 0 
SCALARS Flags2 double 1
LOOKUP_TABLE default
0 0 0 0 0 0 0 0 0 0 0 0 
0.420585 -0.575426 0.575426 -0.472104 -0.545248 0.420585 0.575427 0.575427 0.575426 -0.575426 -0.472104 -0.928251 -0.927963 0.575426 0.472104 -0.545247 -0.545248 0.630877 -0.928251 0.575426 -0.928251 0.472104 -0.927963 -0.545247 0.472104 -0.525731 0.472104 -0.545248 0.630878 -0.545248 -0.545247 -0.545247 -0.927963 -0.472103 0.472103 -0.927963 0.525731 
0.618187 -0.618652 0.618187 -0.618186 0.618652 -0.928251 -0.927963 -0.928251 0.66847 -0.928251 -0.928251 -0.618187 -0.618652 -0.927963 -0.928251 -0.928251 -0.927963 0.568355 0.568355 -0.66847 0.66847 0.618653 -0.928251 0.618652 -0.927963 0 -0.618652 -0.927963 -0.618652 -0.927963 -0.928251 -0.928251 -0.927963 0.668469 -0.928251 -0.928251 -0.568355 0.568355 0.618652 -0.928251 -0.927963 -0.927963 
-0.928251 -0.928251 -0.928251 0 -0.928251 0 -0.928251 -0.928251 -0.928251 0 0 -0.928251 -0.928251 -0.928251 0 -0.928251 
